<svg class="typst-doc" viewBox="0 0 425.2459275590551 288.406160958435" width="425.2459275590551pt" height="288.406160958435pt" xmlns="http://www.w3.org/2000/svg" xmlns:xlink="http://www.w3.org/1999/xlink" xmlns:h5="http://www.w3.org/1999/xhtml">
    <g>
        <g class="typst-group" transform="matrix(1 0 0 1 6 6)">
            <g>
                <path class="typst-shape" fill="none" stroke="#4a90e280" stroke-width="0.75" stroke-linecap="butt" stroke-linejoin="miter" stroke-miterlimit="4" transform="matrix(1 0 0 1 137.0387905511811 120.45067086614173)" d="M 0 0l 9.496159 28.595387 "/>
                <path class="typst-shape" fill="#4a90e280" fill-rule="nonzero" stroke="#00000000" stroke-width="0" stroke-linecap="butt" stroke-linejoin="miter" stroke-miterlimit="4" transform="matrix(1 0 0 1 145.1898567496063 148.5993696519685)" d="M 0 0m 3.131844 5.827058 l -0.44165897 -5.827058 l -2.690185 0.89337575 l 3.131844 4.933682 Z "/>
                <path class="typst-shape" fill="#0000000a" fill-rule="nonzero" stroke="#000000" stroke-width="0.75" stroke-linecap="butt" stroke-linejoin="miter" stroke-miterlimit="4" stroke-dashoffset="0" stroke-dasharray="3 3" transform="matrix(1 0 0 1 15.629594085525307 113.2258474492154)" d="M 0 0m 3.2674124 24.82168 c 8.578001 -16.259346 21.923218 -2.1071396 33.519955 -8.39867 c 11.589268 -6.2840576 20.10749 -24.523518 32.548584 -12.299118 c 12.441086 12.231869 1.6139755 31.935865 11.350159 39.789074 c 9.736176 7.853203 15.2879715 25.778831 -2.2416382 34.670662 c -17.52961 8.89183 -19.061394 -1.1282883 -27.40776 -2.5031586 c -8.33889 -1.3823471 -15.183357 5.469597 -20.413847 7.2853165 c -5.230488 1.8157272 -11.955402 1.1955414 -18.829758 -4.4832687 c -6.874356 -5.6788177 -1.3898153 -9.429825 -3.8855052 -22.117496 c -2.4956899 -12.687668 -13.210718 -15.691463 -4.64019 -31.943338 Z "/>
                <path class="typst-shape" fill="#ffe263" fill-rule="nonzero" stroke="#000000" stroke-width="0.75" stroke-linecap="butt" stroke-linejoin="miter" stroke-miterlimit="4" transform="matrix(1 0 0 1 50.496627401574806 144.07006110236222)" d="M 0 0m 12.8520565 0 c -7.091559 0 -12.8520565 5.7604976 -12.8520565 12.8520565 c 0 7.0915604 5.7604976 12.8520565 12.8520565 12.8520565 c 7.0915604 0 12.8520565 -5.760496 12.8520565 -12.8520565 c 0 -7.091559 -5.760496 -12.8520565 -12.8520565 -12.8520565 Z "/>
                <path class="typst-shape" fill="none" stroke="#000000" stroke-width="1.5" stroke-linecap="butt" stroke-linejoin="miter" stroke-miterlimit="4" transform="matrix(1 0 0 1 17.82322856748661 158.93211968503937)" d="M 0 0m 2.2767904 0 c -5.977701 13.449827 -0.74721265 29.888504 22.416378 30.635717 "/>
                <path class="typst-shape" fill="none" stroke="#4a90e2" stroke-width="0.75" stroke-linecap="butt" stroke-linejoin="miter" stroke-miterlimit="4" transform="matrix(1 0 0 1 86.69160566929135 75.88691149606301)" d="M 0 0m 83.38892 82.55952 c -8.8469925 7.696289 -20.398903 12.351425 -33.04174 12.351425 c -27.81125 0 -50.347183 -22.535927 -50.347183 -50.347183 c 0 -19.337862 10.89436 -36.127728 26.884708 -44.56376 "/>
                <path class="typst-shape" fill="none" stroke="#4a90e280" stroke-width="0.75" stroke-linecap="butt" stroke-linejoin="miter" stroke-miterlimit="4" transform="matrix(1 0 0 1 124.90779163738772 120.45067086614173)" d="M 0 0m 12.130999 0 l -12.130999 42.889378 "/>
                <path class="typst-shape" fill="#4a90e280" fill-rule="nonzero" stroke="#00000000" stroke-width="0" stroke-linecap="butt" stroke-linejoin="miter" stroke-miterlimit="4" transform="matrix(1 0 0 1 123.3648 162.95430163464567)" d="M 0 0m 0 5.8410244 l 2.9068108 -5.0695286 l -2.7276382 -0.7714958 l -0.17917253 5.8410244 Z "/>
                <path class="typst-shape" fill="#4a90e266" fill-rule="nonzero" stroke="#4a90e2" stroke-width="1.5" stroke-linecap="butt" stroke-linejoin="miter" stroke-miterlimit="4" transform="matrix(1 0 0 1 86.86346456692914 125.34491338582679)" d="M 0 0c 14.570645 6.7249136 -0.8592945 -0.2615244 14.383842 6.986438 c -1.1208191 16.737564 -0.37360668 8.144617 -1.4944248 21.407642 c -8.592945 -8.219339 -11.955402 -19.240725 -12.889418 -28.39408 Z "/>
                <path class="typst-shape" fill="none" stroke="#000000" stroke-width="1.5" stroke-linecap="butt" stroke-linejoin="miter" stroke-miterlimit="4" transform="matrix(1 0 0 1 20.100018897637796 106.62723779527559)" d="M 0 0m 0 52.304882 l 29.14129 -52.304882 l 52.005997 25.704113 l -4.184387 61.71976 l -54.54652 -4.4832764 "/>
                <path class="typst-shape" fill="#000000" fill-rule="nonzero" stroke="#00000000" stroke-width="0" stroke-linecap="butt" stroke-linejoin="miter" stroke-miterlimit="4" transform="matrix(1 0 0 1 135.17075905511814 118.58263937007874)" d="M 0 0m 1.8680315 0 c -1.0307499 0 -1.8680315 0.8372816 -1.8680315 1.8680315 c 0 1.0307498 0.8372816 1.8680315 1.8680315 1.8680315 c 1.0307498 0 1.8680315 -0.8372817 1.8680315 -1.8680315 c 0 -1.0307499 -0.8372817 -1.8680315 -1.8680315 -1.8680315 Z "/>
                <path class="typst-shape" fill="none" stroke="#4a90e2" stroke-width="0.75" stroke-linecap="butt" stroke-linejoin="miter" stroke-miterlimit="4" stroke-dashoffset="0" stroke-dasharray="0.75 2" transform="matrix(1 0 0 1 101.22489070866143 84.63677102362206)" d="M 0 0m 35.8139 0 c -19.761538 0 -35.8139 16.052362 -35.8139 35.8139 c 0 19.761536 16.052362 35.8139 35.8139 35.8139 c 19.761536 0 35.8139 -16.052364 35.8139 -35.8139 c 0 -19.761538 -16.052364 -35.8139 -35.8139 -35.8139 Z "/>
                <path class="typst-shape" fill="none" stroke="#4a90e2" stroke-width="0.75" stroke-linecap="butt" stroke-linejoin="miter" stroke-miterlimit="4" transform="matrix(1 0 0 1 79.87702677165355 140.10236220472444)" d="M 0 0m 15.579383 0 l -15.579383 69.04244 "/>
                <path class="typst-shape" fill="none" transform="matrix(1 0 0 1 131.73358110236222 106.77668031496066)" d="M 0 0h 6.1302 v 9.0576 h -6.1302 v -9.0576 Z "/>
                <g class="typst-group">
                    <g>
                        <g class="typst-group" transform="matrix(1 0 0 1 131.73358100787402 106.77668031496066)">
                            <g>
                                <g class="typst-text" transform="matrix(1 0 0 -1 0 6.9666)">
                                    <use xlink:href="#gE39F21EA63B3739789A5127E7BD7DAC7" x="0" y="0" fill="#000000" fill-rule="nonzero"/>
                                </g>
                            </g>
                        </g>
                    </g>
                </g>
                <path class="typst-shape" fill="none" transform="matrix(1 0 0 1 39.60226771653544 148.3217007874016)" d="M 0 0h 7.3644 v 6.9666 h -7.3644 v -6.9666 Z "/>
                <g class="typst-group">
                    <g>
                        <g class="typst-group" transform="matrix(1 0 0 1 39.60226766929134 148.3217007401575)">
                            <g>
                                <g class="typst-text" transform="matrix(1 0 0 -1 0 6.9666)">
                                    <use xlink:href="#g417A3628DA6F7077F1AFFF9B8E048150" x="0" y="0" fill="#000000" fill-rule="nonzero"/>
                                </g>
                            </g>
                        </g>
                    </g>
                </g>
                <path class="typst-shape" fill="none" transform="matrix(1 0 0 1 0 128.14696062992127)" d="M 0 0h 16.44036 v 9.486 h -16.44036 v -9.486 Z "/>
                <g class="typst-group">
                    <g>
                        <g class="typst-group" transform="matrix(1 0 0 1 -0.000000047244094368909106 128.14696062992127)">
                            <g>
                                <g class="typst-text" transform="matrix(1 0 0 -1 0 6.9666)">
                                    <use xlink:href="#g417A3628DA6F7077F1AFFF9B8E048150" x="0" y="0" fill="#000000" fill-rule="nonzero"/>
                                </g>
                                <g class="typst-text" transform="matrix(1 0 0 -1 6.3443999999999985 9.486)">
                                    <use xlink:href="#g823834E8C2A0D654F7B54842FAB9F950" x="0" y="0" fill="#000000" fill-rule="nonzero"/>
                                    <use xlink:href="#g8AC743394E474FD47A4EFE623713632" x="4.662419999999999" y="0" fill="#000000" fill-rule="nonzero"/>
                                </g>
                            </g>
                        </g>
                    </g>
                </g>
                <path class="typst-shape" fill="none" transform="matrix(1 0 0 1 33.99817322834646 102.36812598425198)" d="M 0 0h 7.3644 v 6.9666 h -7.3644 v -6.9666 Z "/>
                <g class="typst-group">
                    <g>
                        <g class="typst-group" transform="matrix(1 0 0 1 33.99817318110235 102.36812593700786)">
                            <g>
                                <g class="typst-text" transform="matrix(1 0 0 -1 0.9383999999999997 4.589999999999999)">
                                    <use xlink:href="#gC418ABDC7B2E4692E19D53F67EBC0E38" x="0" y="0" fill="#000000" fill-rule="nonzero"/>
                                </g>
                                <g class="typst-text" transform="matrix(1 0 0 -1 0 6.9666)">
                                    <use xlink:href="#g417A3628DA6F7077F1AFFF9B8E048150" x="0" y="0" fill="#000000" fill-rule="nonzero"/>
                                </g>
                            </g>
                        </g>
                    </g>
                </g>
                <path class="typst-shape" fill="none" transform="matrix(1 0 0 1 128.29640314960628 155.04661417322836)" d="M 0 0h 4.896 v 8.9454 h -4.896 v -8.9454 Z "/>
                <g class="typst-group">
                    <g>
                        <g class="typst-group" transform="matrix(1 0 0 1 128.29640314960628 155.04661407874016)">
                            <g>
                                <g class="typst-text" transform="matrix(1 0 0 -1 0 6.9666)">
                                    <use xlink:href="#gC067F919B99F66746D2B595C44500874" x="0" y="0" fill="#4a90e2" fill-rule="nonzero"/>
                                </g>
                            </g>
                        </g>
                    </g>
                </g>
                <path class="typst-shape" fill="none" transform="matrix(1 0 0 1 143.39009763779526 125.00866771653544)" d="M 0 0h 22.260933 v 8.9454 h -22.260933 v -8.9454 Z "/>
                <g class="typst-group">
                    <g>
                        <g class="typst-group" transform="matrix(1 0 0 1 143.3900976272966 125.00866762204726)">
                            <g>
                                <g class="typst-text" transform="matrix(1 0 0 -1 0 6.9666)">
                                    <use xlink:href="#gC067F919B99F66746D2B595C44500874" x="0" y="0" fill="#4a90e2" fill-rule="nonzero"/>
                                </g>
                                <g class="typst-text" transform="matrix(1 0 0 -1 7.162666666666665 6.9666)">
                                    <use xlink:href="#gAF2E01A57E46500555A4A545FC720A0B" x="0" y="0" fill="#4a90e2" fill-rule="nonzero"/>
                                </g>
                                <g class="typst-text" transform="matrix(1 0 0 -1 17.364933333333333 6.9666)">
                                    <use xlink:href="#g4C0FA4B51021330B5092CEC619BD9C20" x="0" y="0" fill="#4a90e2" fill-rule="nonzero"/>
                                </g>
                            </g>
                        </g>
                    </g>
                </g>
                <path class="typst-shape" fill="none" transform="matrix(1 0 0 1 64.03611968503937 209.8920188976378)" d="M 0 0h 74.2628 v 9.4962 h -74.2628 v -9.4962 Z "/>
                <g class="typst-group">
                    <g>
                        <g class="typst-group" transform="matrix(1 0 0 1 64.03611962204725 209.8920188031496)">
                            <g>
                                <g class="typst-text" transform="matrix(1 0 0 -1 0 6.9666)">
                                    <use xlink:href="#gC147FA51F901938404A020EF7FB5485A" x="0" y="0" fill="#4a90e2" fill-rule="nonzero"/>
                                </g>
                                <g class="typst-text" transform="matrix(1 0 0 -1 12.054133333333333 6.9666)">
                                    <use xlink:href="#g6E7F30DC68C2F93C845EBB1B1744DE4A" x="0" y="0" fill="#4a90e2" fill-rule="nonzero"/>
                                </g>
                                <g class="typst-group">
                                    <g>
                                        <g class="typst-text" transform="matrix(1 0 0 -1 24.128666666666664 6.9666)">
                                            <use xlink:href="#gD9A1A5C65CB801D57526ED5C27B5412B" x="0" y="0" fill="#4a90e2" fill-rule="nonzero"/>
                                        </g>
                                        <g class="typst-text" transform="matrix(1 0 0 -1 32.06426666666666 6.966600000000001)">
                                            <use xlink:href="#g34002D7641FF334544E21EABED726F6B" x="0" y="0" fill="#4a90e2" fill-rule="nonzero"/>
                                        </g>
                                        <g class="typst-text" transform="matrix(1 0 0 -1 36.032066666666665 6.9666)">
                                            <use xlink:href="#gE39F21EA63B3739789A5127E7BD7DAC7" x="0" y="0" fill="#4a90e2" fill-rule="nonzero"/>
                                        </g>
                                        <g class="typst-text" transform="matrix(1 0 0 -1 42.16226666666666 6.9666)">
                                            <use xlink:href="#g5D90E47A451348D7BA4C48AA5ECB1211" x="0" y="0" fill="#4a90e2" fill-rule="nonzero"/>
                                        </g>
                                        <g class="typst-text" transform="matrix(1 0 0 -1 46.69786666666666 6.9666)">
                                            <use xlink:href="#gC067F919B99F66746D2B595C44500874" x="0" y="0" fill="#4a90e2" fill-rule="nonzero"/>
                                        </g>
                                        <g class="typst-text" transform="matrix(1 0 0 -1 51.59386666666666 6.966600000000001)">
                                            <use xlink:href="#gB6AD65A5947585E2BDC6CEEAC42BF5D9" x="0" y="0" fill="#4a90e2" fill-rule="nonzero"/>
                                        </g>
                                        <g class="typst-text" transform="matrix(1 0 0 -1 57.82833333333333 6.9666)">
                                            <use xlink:href="#g5BB8BFF1B51B11A5B1981212EDBAD0C" x="0" y="0" fill="#4a90e2" fill-rule="nonzero"/>
                                        </g>
                                    </g>
                                </g>
                                <g class="typst-text" transform="matrix(1 0 0 -1 67.83679999999998 4.589999999999999)">
                                    <use xlink:href="#gC418ABDC7B2E4692E19D53F67EBC0E38" x="0" y="0" fill="#4a90e2" fill-rule="nonzero"/>
                                </g>
                                <g class="typst-text" transform="matrix(1 0 0 -1 66.8984 6.9666)">
                                    <use xlink:href="#g417A3628DA6F7077F1AFFF9B8E048150" x="0" y="0" fill="#4a90e2" fill-rule="nonzero"/>
                                </g>
                            </g>
                        </g>
                    </g>
                </g>
                <path class="typst-shape" fill="#4a90e266" fill-rule="nonzero" stroke="#00000000" stroke-width="0" stroke-linecap="butt" stroke-linejoin="miter" stroke-miterlimit="4" transform="matrix(1 0 0 1 325.0748409448818 27.9083905511811)" d="M 0 0c 14.570645 6.7249136 -0.8592945 -0.2615244 14.383842 6.986438 c -1.1208191 16.737564 -0.37360668 8.144617 -1.4944248 21.407642 c -8.592945 -8.219339 -11.955402 -19.240725 -12.889418 -28.39408 Z "/>
                <path class="typst-shape" fill="#0000000a" fill-rule="nonzero" stroke="#000000" stroke-width="0.75" stroke-linecap="butt" stroke-linejoin="miter" stroke-miterlimit="4" stroke-dashoffset="0" stroke-dasharray="3 3" transform="matrix(1 0 0 1 253.84097046347802 15.976127764175997)" d="M 0 0m 3.2674124 24.82168 c 8.578001 -16.259346 21.923218 -2.1071396 33.519955 -8.39867 c 11.589268 -6.2840576 20.10749 -24.523518 32.548584 -12.299118 c 12.441086 12.231869 1.6139755 31.935865 11.350159 39.789074 c 9.736176 7.853203 15.2879715 25.778831 -2.2416382 34.670662 c -17.52961 8.89183 -19.061394 -1.1282883 -27.40776 -2.5031586 c -8.33889 -1.3823471 -15.183357 5.469597 -20.413847 7.2853165 c -5.230488 1.8157272 -11.955402 1.1955414 -18.829758 -4.4832687 c -6.874356 -5.6788177 -1.3898153 -9.429825 -3.8855052 -22.117496 c -2.4956899 -12.687668 -13.210718 -15.691463 -4.64019 -31.943338 Z "/>
                <path class="typst-shape" fill="#ffe263" fill-rule="nonzero" stroke="#000000" stroke-width="0.75" stroke-linecap="butt" stroke-linejoin="miter" stroke-miterlimit="4" transform="matrix(1 0 0 1 288.7080037795275 46.633538267716546)" d="M 0 0m 12.8520565 0 c -7.091559 0 -12.8520565 5.7604976 -12.8520565 12.8520565 c 0 7.0915604 5.7604976 12.8520565 12.8520565 12.8520565 c 7.0915604 0 12.8520565 -5.760496 12.8520565 -12.8520565 c 0 -7.091559 -5.760496 -12.8520565 -12.8520565 -12.8520565 Z "/>
                <path class="typst-shape" fill="none" stroke="#000000" stroke-width="1.5" stroke-linecap="butt" stroke-linejoin="miter" stroke-miterlimit="4" transform="matrix(1 0 0 1 256.03460494543936 61.49559685039371)" d="M 0 0m 2.2767904 0 c -5.977701 13.449827 -0.74721265 29.888504 22.416378 30.635717 "/>
                <path class="typst-shape" fill="#4a90e2" fill-rule="nonzero" stroke="#00000000" stroke-width="0" stroke-linecap="butt" stroke-linejoin="miter" stroke-miterlimit="4" transform="matrix(1 0 0 1 326.49454488188985 35.90356535433071)" d="M 0 0m 1.8680315 0 c -1.0307499 0 -1.8680315 0.8372816 -1.8680315 1.8680315 c 0 1.0307498 0.8372816 1.8680315 1.8680315 1.8680315 c 1.0307498 0 1.8680315 -0.8372817 1.8680315 -1.8680315 c 0 -1.0307499 -0.8372817 -1.8680315 -1.8680315 -1.8680315 Z "/>
                <path class="typst-shape" fill="none" stroke="#000000" stroke-width="1.5" stroke-linecap="butt" stroke-linejoin="miter" stroke-miterlimit="4" transform="matrix(1 0 0 1 258.31139527559054 9.190714960629927)" d="M 0 0m 0 52.304882 l 29.14129 -52.304882 l 52.005997 25.704113 l -4.184387 61.71976 l -54.54652 -4.4832764 "/>
                <path class="typst-shape" fill="none" transform="matrix(1 0 0 1 277.58948031496067 48.19521259842521)" d="M 0 0h 7.3644 v 6.9666 h -7.3644 v -6.9666 Z "/>
                <g class="typst-group">
                    <g>
                        <g class="typst-group" transform="matrix(1 0 0 1 277.5894802677165 48.19521255118111)">
                            <g>
                                <g class="typst-text" transform="matrix(1 0 0 -1 0 6.9666)">
                                    <use xlink:href="#g417A3628DA6F7077F1AFFF9B8E048150" x="0" y="0" fill="#000000" fill-rule="nonzero"/>
                                </g>
                            </g>
                        </g>
                    </g>
                </g>
                <path class="typst-shape" fill="none" transform="matrix(1 0 0 1 245.45933858267716 24.658015748031502)" d="M 0 0h 16.44036 v 9.486 h -16.44036 v -9.486 Z "/>
                <g class="typst-group">
                    <g>
                        <g class="typst-group" transform="matrix(1 0 0 1 245.45933853543306 24.658015748031506)">
                            <g>
                                <g class="typst-text" transform="matrix(1 0 0 -1 0 6.9666)">
                                    <use xlink:href="#g417A3628DA6F7077F1AFFF9B8E048150" x="0" y="0" fill="#000000" fill-rule="nonzero"/>
                                </g>
                                <g class="typst-text" transform="matrix(1 0 0 -1 6.3443999999999985 9.486)">
                                    <use xlink:href="#g823834E8C2A0D654F7B54842FAB9F950" x="0" y="0" fill="#000000" fill-rule="nonzero"/>
                                    <use xlink:href="#g8AC743394E474FD47A4EFE623713632" x="4.662419999999999" y="0" fill="#000000" fill-rule="nonzero"/>
                                </g>
                            </g>
                        </g>
                    </g>
                </g>
                <path class="typst-shape" fill="none" transform="matrix(1 0 0 1 273.47981102362206 0.000000000000006294177777402462)" d="M 0 0h 7.3644 v 6.9666 h -7.3644 v -6.9666 Z "/>
                <g class="typst-group">
                    <g>
                        <g class="typst-group" transform="matrix(1 0 0 1 273.47981097637796 -0.000000047244092130979225)">
                            <g>
                                <g class="typst-text" transform="matrix(1 0 0 -1 0.9383999999999997 4.589999999999999)">
                                    <use xlink:href="#gC418ABDC7B2E4692E19D53F67EBC0E38" x="0" y="0" fill="#000000" fill-rule="nonzero"/>
                                </g>
                                <g class="typst-text" transform="matrix(1 0 0 -1 0 6.9666)">
                                    <use xlink:href="#g417A3628DA6F7077F1AFFF9B8E048150" x="0" y="0" fill="#000000" fill-rule="nonzero"/>
                                </g>
                            </g>
                        </g>
                    </g>
                </g>
                <path class="typst-shape" fill="none" transform="matrix(1 0 0 1 317.02736125984245 35.096575748031505)" d="M 0 0h 9.60738 v 9.0576 h -9.60738 v -9.0576 Z "/>
                <g class="typst-group">
                    <g>
                        <g class="typst-group" transform="matrix(1 0 0 1 317.02736121259835 35.0965757480315)">
                            <g>
                                <g class="typst-text" transform="matrix(1 0 0 -1 0 6.9666)">
                                    <use xlink:href="#gE39F21EA63B3739789A5127E7BD7DAC7" x="0" y="0" fill="#4a90e2" fill-rule="nonzero"/>
                                </g>
                                <g class="typst-text" transform="matrix(1 0 0 -1 6.1301999999999985 3.2640000000000007)">
                                    <use xlink:href="#gD262EA7D8A5AFD5F159003BAF6334990" x="0" y="0" fill="#4a90e2" fill-rule="nonzero"/>
                                </g>
                            </g>
                        </g>
                    </g>
                </g>
                <path class="typst-shape" fill="none" transform="matrix(1 0 0 1 360.6795212598426 38.182563779527555)" d="M 0 0h 47.010643 v 7.1967773 h -47.010643 v -7.1967773 Z "/>
                <g class="typst-group">
                    <g>
                        <g class="typst-group" transform="matrix(1 0 0 1 360.67952113176676 38.18256366400098)">
                            <g>
                                <g class="typst-text" transform="matrix(1 0 0 -1 0 7.06728515625)">
                                    <use xlink:href="#gE0CEA835C5D02DD58923B8507A7327C1" x="0" y="0" fill="#000000" fill-rule="nonzero"/>
                                    <use xlink:href="#g2CE253F992692DD3F739C707EC465736" x="6.310253906249999" y="0" fill="#000000" fill-rule="nonzero"/>
                                    <use xlink:href="#g15B0F630A0E5E58B6D12F98DC6ABE323" x="11.240917968749997" y="0" fill="#000000" fill-rule="nonzero"/>
                                    <use xlink:href="#g42ECEF8E83EA4379F873B992BA5B360" x="15.419531249999997" y="0" fill="#000000" fill-rule="nonzero"/>
                                    <use xlink:href="#gA6A7AC1501B65B4FCDFDC3B09F691EE2" x="24.404296874999993" y="0" fill="#000000" fill-rule="nonzero"/>
                                    <use xlink:href="#g533B6146EED574DC421942617B3CD52B" x="27.392578124999993" y="0" fill="#000000" fill-rule="nonzero"/>
                                    <use xlink:href="#gCBF721E80F858B8686A3D65A0EAC52B6" x="33.41894531249999" y="0" fill="#000000" fill-rule="nonzero"/>
                                    <use xlink:href="#g131B820404BBDEA51D60D357C5250494" x="38.55878906249999" y="0" fill="#000000" fill-rule="nonzero"/>
                                    <use xlink:href="#g2CE253F992692DD3F739C707EC465736" x="42.07998046874999" y="0" fill="#000000" fill-rule="nonzero"/>
                                </g>
                            </g>
                        </g>
                    </g>
                </g>
                <path class="typst-shape" fill="#4a90e266" fill-rule="nonzero" stroke="#4a90e2" stroke-width="1.5" stroke-linecap="butt" stroke-linejoin="miter" stroke-miterlimit="4" transform="matrix(1 0 0 1 316.1307061417323 197.48081763779533)" d="M 0 0c 4.520636 2.0249462 1.3449826 0.5305209 6.194392 2.899185 c 2.2491102 5.8506746 5.6115665 13.135998 9.437295 22.84976 c 1.4047604 7.285322 2.3387756 13.263025 4.1096706 22.677904 c -18.956785 -18.755037 -19.703997 -37.061745 -19.741358 -48.42685 Z "/>
                <path class="typst-shape" fill="#0000000a" fill-rule="nonzero" stroke="#000000" stroke-width="0.75" stroke-linecap="butt" stroke-linejoin="miter" stroke-miterlimit="4" stroke-dashoffset="0" stroke-dasharray="3 3" transform="matrix(1 0 0 1 258.62313109339937 192.13149784291616)" d="M 0 0m 3.2674124 24.82168 c 8.578001 -16.259346 21.923218 -2.1071396 33.519955 -8.39867 c 11.589268 -6.2840576 20.10749 -24.523518 32.548584 -12.299118 c 12.441086 12.231869 1.6139755 31.935865 11.350159 39.789074 c 9.736176 7.853203 15.2879715 25.778831 -2.2416382 34.670662 c -17.52961 8.89183 -19.061394 -1.1282883 -27.40776 -2.5031586 c -8.33889 -1.3823471 -15.183357 5.469597 -20.413847 7.2853165 c -5.230488 1.8157272 -11.955402 1.1955414 -18.829758 -4.4832687 c -6.874356 -5.6788177 -1.3898153 -9.429825 -3.8855052 -22.117496 c -2.4956899 -12.687668 -13.210718 -15.691463 -4.64019 -31.943338 Z "/>
                <path class="typst-shape" fill="#f5a6234c" fill-rule="nonzero" stroke="#000000" stroke-width="0.75" stroke-linecap="butt" stroke-linejoin="miter" stroke-miterlimit="4" stroke-dashoffset="0" stroke-dasharray="0.75 2" transform="matrix(1 0 0 1 322.32509858267713 200.38000251968504)" d="M 0 0l 9.437295 22.849762 l 3.736063 20.548347 l 4.5579977 29.17865 l 4.184389 -61.71976 l -21.915745 -10.856999 Z "/>
                <path class="typst-shape" fill="#f5a6234c" fill-rule="nonzero" stroke="#000000" stroke-width="0.75" stroke-linecap="butt" stroke-linejoin="miter" stroke-miterlimit="4" stroke-dashoffset="0" stroke-dasharray="0.75 2" transform="matrix(1 0 0 1 283.559708976378 185.5328881889764)" d="M 0 0m 16.76745 3.9901152 l -16.76745 11.581796 l 8.675138 -15.571911 l 8.092312 3.9901152 Z "/>
                <path class="typst-shape" fill="#ffe263" fill-rule="nonzero" stroke="#000000" stroke-width="0.75" stroke-linecap="butt" stroke-linejoin="miter" stroke-miterlimit="4" transform="matrix(1 0 0 1 293.4901644094489 222.97571149606298)" d="M 0 0m 12.8520565 0 c -7.091559 0 -12.8520565 5.7604976 -12.8520565 12.8520565 c 0 7.0915604 5.7604976 12.8520565 12.8520565 12.8520565 c 7.0915604 0 12.8520565 -5.760496 12.8520565 -12.8520565 c 0 -7.091559 -5.760496 -12.8520565 -12.8520565 -12.8520565 Z "/>
                <path class="typst-shape" fill="none" stroke="#000000" stroke-width="1.5" stroke-linecap="butt" stroke-linejoin="miter" stroke-miterlimit="4" transform="matrix(1 0 0 1 260.8167655753607 237.8377700787402)" d="M 0 0m 2.2767904 0 c -5.977701 13.449827 -0.74721265 29.888504 22.416378 30.635717 "/>
                <path class="typst-shape" fill="none" stroke="#4a90e280" stroke-width="0.75" stroke-linecap="butt" stroke-linejoin="miter" stroke-miterlimit="4" transform="matrix(1 0 0 1 325.06119691925517 179.39778188256696)" d="M 0 0m 54.97113 19.95854 l -54.97113 -19.95854 "/>
                <path class="typst-shape" fill="#4a90e280" fill-rule="nonzero" stroke="#00000000" stroke-width="0" stroke-linecap="butt" stroke-linejoin="miter" stroke-miterlimit="4" transform="matrix(1 0 0 1 319.73227086614173 177.46299212598427)" d="M 0 0l 4.8452287 3.2670214 l 0.9673948 -2.664463 l -5.8126235 -0.60255826 Z "/>
                <path class="typst-shape" fill="#000000" fill-rule="nonzero" stroke="#00000000" stroke-width="0" stroke-linecap="butt" stroke-linejoin="miter" stroke-miterlimit="4" transform="matrix(1 0 0 1 378.1642960629922 197.4882897637796)" d="M 0 0m 1.8680315 0 c -1.0307499 0 -1.8680315 0.8372816 -1.8680315 1.8680315 c 0 1.0307498 0.8372816 1.8680315 1.8680315 1.8680315 c 1.0307498 0 1.8680315 -0.8372817 1.8680315 -1.8680315 c 0 -1.0307499 -0.8372817 -1.8680315 -1.8680315 -1.8680315 Z "/>
                <path class="typst-shape" fill="none" stroke="#4a90e2" stroke-width="0.75" stroke-linecap="butt" stroke-linejoin="miter" stroke-miterlimit="4" stroke-dashoffset="0" stroke-dasharray="0.75 2" transform="matrix(1 0 0 1 329.6851426771654 159.35803086614175)" d="M 0 0m 83.38892 77.99405 c -8.8469925 7.696289 -20.398903 12.351425 -33.04174 12.351425 c -27.81125 0 -50.347183 -22.535934 -50.347183 -50.347183 c 0 -16.30418 7.7485948 -30.800104 19.763773 -39.99829 "/>
                <path class="typst-shape" fill="none" stroke="#4a90e2" stroke-width="0.75" stroke-linecap="butt" stroke-linejoin="miter" stroke-miterlimit="4" transform="matrix(1 0 0 1 315.73468346456696 154.74772913385826)" d="M 0 0m 97.511246 99.670685 c -9.691353 5.8656235 -21.05645 9.23555 -33.2136 9.23555 c -35.507545 0 -64.297646 -28.7901 -64.297646 -64.29764 c 0 -17.320389 6.8519397 -33.049213 17.99288 -44.608593 "/>
                <path class="typst-shape" fill="none" stroke="#000000" stroke-width="1.5" stroke-linecap="butt" stroke-linejoin="miter" stroke-miterlimit="4" transform="matrix(1 0 0 1 263.09355590551183 189.52300346456695)" d="M 0 0m 0 48.314766 l 20.466152 -36.73297 l 16.767452 -11.581796 l 8.092312 3.9975874 l 13.905628 6.859412 l 9.437294 22.849762 l 3.736061 20.548347 l 4.5579987 29.178654 l -54.54652 -4.4832764 "/>
                <path class="typst-shape" fill="none" stroke="#4a90e2" stroke-width="0.75" stroke-linecap="butt" stroke-linejoin="miter" stroke-miterlimit="4" stroke-dashoffset="0" stroke-dasharray="0.75 2" transform="matrix(1 0 0 1 344.2184277165354 164.7379615748032)" d="M 0 0m 64.38731 56.220276 c -6.538105 8.630302 -16.909416 14.211983 -28.573406 14.211983 c -19.778717 0 -35.8139 -16.035183 -35.8139 -35.8139 c 0 -16.58812 11.28291 -30.546051 26.593296 -34.61836 "/>
                <path class="typst-shape" fill="none" transform="matrix(1 0 0 1 375.6237732283465 185.08456062992127)" d="M 0 0h 6.1302 v 9.0576 h -6.1302 v -9.0576 Z "/>
                <g class="typst-group">
                    <g>
                        <g class="typst-group" transform="matrix(1 0 0 1 375.62377313385826 185.0845606299213)">
                            <g>
                                <g class="typst-text" transform="matrix(1 0 0 -1 0 6.9666)">
                                    <use xlink:href="#gE39F21EA63B3739789A5127E7BD7DAC7" x="0" y="0" fill="#000000" fill-rule="nonzero"/>
                                </g>
                            </g>
                        </g>
                    </g>
                </g>
                <path class="typst-shape" fill="none" transform="matrix(1 0 0 1 281.6991496062992 232.3831181102362)" d="M 0 0h 7.3644 v 6.9666 h -7.3644 v -6.9666 Z "/>
                <g class="typst-group">
                    <g>
                        <g class="typst-group" transform="matrix(1 0 0 1 281.6991495590551 232.38311806299214)">
                            <g>
                                <g class="typst-text" transform="matrix(1 0 0 -1 0 6.9666)">
                                    <use xlink:href="#g417A3628DA6F7077F1AFFF9B8E048150" x="0" y="0" fill="#000000" fill-rule="nonzero"/>
                                </g>
                            </g>
                        </g>
                    </g>
                </g>
                <path class="typst-shape" fill="none" transform="matrix(1 0 0 1 247.7009763779528 202.12100787401576)" d="M 0 0h 16.44036 v 9.486 h -16.44036 v -9.486 Z "/>
                <g class="typst-group">
                    <g>
                        <g class="typst-group" transform="matrix(1 0 0 1 247.70097633070867 202.12100787401573)">
                            <g>
                                <g class="typst-text" transform="matrix(1 0 0 -1 0 6.9666)">
                                    <use xlink:href="#g417A3628DA6F7077F1AFFF9B8E048150" x="0" y="0" fill="#000000" fill-rule="nonzero"/>
                                </g>
                                <g class="typst-text" transform="matrix(1 0 0 -1 6.3443999999999985 9.486)">
                                    <use xlink:href="#g823834E8C2A0D654F7B54842FAB9F950" x="0" y="0" fill="#000000" fill-rule="nonzero"/>
                                    <use xlink:href="#g8AC743394E474FD47A4EFE623713632" x="4.662419999999999" y="0" fill="#000000" fill-rule="nonzero"/>
                                </g>
                            </g>
                        </g>
                    </g>
                </g>
                <path class="typst-shape" fill="none" transform="matrix(1 0 0 1 273.8534173228346 186.42954330708665)" d="M 0 0h 7.3644 v 6.9666 h -7.3644 v -6.9666 Z "/>
                <g class="typst-group">
                    <g>
                        <g class="typst-group" transform="matrix(1 0 0 1 273.8534172755905 186.42954325984252)">
                            <g>
                                <g class="typst-text" transform="matrix(1 0 0 -1 0.9383999999999997 4.589999999999999)">
                                    <use xlink:href="#gC418ABDC7B2E4692E19D53F67EBC0E38" x="0" y="0" fill="#000000" fill-rule="nonzero"/>
                                </g>
                                <g class="typst-text" transform="matrix(1 0 0 -1 0 6.9666)">
                                    <use xlink:href="#g417A3628DA6F7077F1AFFF9B8E048150" x="0" y="0" fill="#000000" fill-rule="nonzero"/>
                                </g>
                            </g>
                        </g>
                    </g>
                </g>
                <path class="typst-shape" fill="none" transform="matrix(1 0 0 1 328.19818960629925 168.79532598425195)" d="M 0 0h 22.260933 v 8.9454 h -22.260933 v -8.9454 Z "/>
                <g class="typst-group">
                    <g>
                        <g class="typst-group" transform="matrix(1 0 0 1 328.1981895958006 168.7953258897638)">
                            <g>
                                <g class="typst-text" transform="matrix(1 0 0 -1 0 6.9666)">
                                    <use xlink:href="#gC067F919B99F66746D2B595C44500874" x="0" y="0" fill="#4a90e2" fill-rule="nonzero"/>
                                </g>
                                <g class="typst-text" transform="matrix(1 0 0 -1 7.162666666666665 6.9666)">
                                    <use xlink:href="#g47834053F8876707A2DB0F8820519B95" x="0" y="0" fill="#4a90e2" fill-rule="nonzero"/>
                                </g>
                                <g class="typst-text" transform="matrix(1 0 0 -1 17.364933333333333 6.9666)">
                                    <use xlink:href="#g4C0FA4B51021330B5092CEC619BD9C20" x="0" y="0" fill="#4a90e2" fill-rule="nonzero"/>
                                </g>
                            </g>
                        </g>
                    </g>
                </g>
                <path class="typst-shape" fill="none" stroke="#000000" stroke-width="0.75" stroke-linecap="butt" stroke-linejoin="miter" stroke-miterlimit="4" transform="matrix(1 0 0 1 185.2340031496063 54.83355552872584)" d="M 0 0m 0 75.4056 c 15.171738 1.0606766 20.331549 -62.509857 40.525406 -75.4056 "/>
                <path class="typst-shape" fill="#000000" fill-rule="nonzero" stroke="#00000000" stroke-width="0" stroke-linecap="butt" stroke-linejoin="miter" stroke-miterlimit="4" transform="matrix(1 0 0 1 225.1832812469291 52.52904566929134)" d="M 0 0m 8.171213 0 l -8.171213 0.40573838 l 1.1522549 3.797543 l 7.018958 -4.2032814 Z "/>
                <path class="typst-shape" fill="none" stroke="#000000" stroke-width="0.75" stroke-linecap="butt" stroke-linejoin="miter" stroke-miterlimit="4" transform="matrix(1 0 0 1 186.42954330708665 136.2168566929134)" d="M 0 0c 14.799548 1.0628766 21.725906 72.40305 42.37511 86.58495 "/>
                <path class="typst-shape" fill="#000000" fill-rule="nonzero" stroke="#00000000" stroke-width="0" stroke-linecap="butt" stroke-linejoin="miter" stroke-miterlimit="4" transform="matrix(1 0 0 1 228.18395730614174 220.91713654110237)" d="M 0 0m 8.159388 4.3674617 l -6.917993 -4.3674617 l -1.2413946 3.769345 l 8.159388 0.59811664 Z "/>
            </g>
        </g>
    </g>
    <defs id="glyph">
        <symbol id="gE39F21EA63B3739789A5127E7BD7DAC7" overflow="visible">
            <path d="M 0 0m 3.927 4.539 c 0.19379997 0.80579996 0.39779997 1.5912004 0.5813999 2.3970003 v 0.030600071 c -0.030599594 0.07139969 -0.08159971 0.11219978 -0.1631999 0.11219978 c -0.091799736 0 -0.15299988 -0.08159971 -0.18359995 -0.23460007 l -0.5813999 -2.3052 c -0.7650001 -0.030600071 -1.4586 -0.31619978 -2.0808 -0.8465998 c -0.663 -0.5610001 -0.9996 -1.2138002 -0.9996 -1.9584001 c 0 -1.1016 0.8466 -1.8054001 1.9176002 -1.8666 c -0.19379997 -0.8058 -0.33660007 -1.3872001 -0.42840004 -1.734 c -0.010200024 -0.030600071 -0.010200024 -0.061200023 -0.010200024 -0.07140005 c 0 -0.10199988 0.05100012 -0.153 0.1631999 -0.153 c 0.11220002 0 0.1428001 0.061199903 0.17340016 0.18360007 l 0.4488001 1.7646 c 0.76499987 0.030599996 1.4586 0.31620002 2.0808 0.84660006 c 0.6630001 0.5712001 0.99959993 1.224 0.99959993 1.9686 c 0 1.0914001 -0.8670001 1.7748003 -1.9176002 1.8666 Z m -0.08159995 -0.30599976 c 0.7752001 -0.05100012 1.2648003 -0.53040004 1.2648003 -1.3464003 c 0 -0.408 -0.09180021 -0.816 -0.27540016 -1.2138 c -0.32640028 -0.73440003 -1.0710001 -1.4076 -1.9992001 -1.4994 Z m -2.6112 -2.7132 c 0 0.408 0.09180009 0.8160001 0.27540004 1.2138001 c 0.32640004 0.73440003 1.071 1.3973999 1.9890002 1.4994001 l -1.0098002 -4.0698004 c -0.765 0.061200008 -1.2546 0.5406 -1.2546 1.3566 Z "/>
        </symbol>
        <symbol id="g417A3628DA6F7077F1AFFF9B8E048150" overflow="visible">
            <path d="M 0 0m 4.1004 1.3668001 c 0.6630001 0.051 1.2444 0.255 1.7646003 0.59159994 c 0.612 0.408 0.9180002 0.918 0.9180002 1.5198002 c 0 0.6017997 -0.30600023 1.1118 -0.9180002 1.5198 c -0.52020025 0.34679985 -1.1016002 0.55079985 -1.7646003 0.60179996 v 0.5304003 c 0 0.13259983 0.010200024 0.21420002 0.040800095 0.26519966 c 0.05100012 0.11220026 0.3366003 0.1734004 0.8772001 0.1734004 h 0.37739992 v 0.39779997 c -0.27540016 -0.020400047 -0.8568001 -0.030600071 -1.7442 -0.030600071 c -0.89759994 0 -1.4790001 0.010200024 -1.7544 0.030600071 v -0.39779997 h 0.37739992 c 0.54060006 0 0.83640003 -0.05100012 0.88740015 -0.16320038 c 0.020400047 -0.05099964 0.030599833 -0.14279985 0.030599833 -0.27539968 v -0.5304003 c -0.65279984 -0.07139969 -1.224 -0.27539968 -1.7238 -0.612 c -0.6018 -0.39779997 -0.89760005 -0.8976002 -0.89760005 -1.4993999 c 0 -0.6018002 0.29580003 -1.1016002 0.88740003 -1.5096002 c 0.49979997 -0.33659995 1.0812001 -0.54060006 1.734 -0.612 v -0.53040004 c 0 -0.13260001 -0.010199785 -0.21420002 -0.030599833 -0.26520002 c -0.05100012 -0.11219999 -0.3468001 -0.17339998 -0.88740015 -0.17339998 h -0.37739992 v -0.39780003 c 0.27539992 0.0204 0.8568001 0.0306 1.7442 0.0306 c 0.89759994 0 1.4789999 -0.010199999 1.7544 -0.0306 v 0.39780003 h -0.37739992 c -0.5405998 0 -0.8262 0.051 -0.8772001 0.16320002 c -0.030600071 0.051 -0.040800095 0.14279997 -0.040800095 0.27539998 Z m 0 3.9270003 c 1.0608001 -0.13260031 1.5912004 -0.7344003 1.5912004 -1.8054001 c 0 -1.0710001 -0.5304003 -1.6728002 -1.5912004 -1.8156002 Z m -0.90779996 -0.010200024 v -3.6006002 c -1.02 0.153 -1.53 0.74460006 -1.53 1.7952001 c 0 1.0505998 0.51 1.6523998 1.53 1.8054001 Z "/>
        </symbol>
        <symbol id="g823834E8C2A0D654F7B54842FAB9F950" overflow="visible">
            <path d="M 0 0m 1.9635 4.57674 h 0.84252 c 0.5069399 0 0.83537984 -0.10710001 0.99959993 -0.31415987 c 0.2284801 -0.27846003 0.2570398 -0.54264 0.3212998 -1.0495799 h 0.23562002 l -0.20705986 1.6421998 h -3.91986 v -0.27846003 h 0.19992 c 0.24990001 0 0.39983997 -0.014279842 0.44982 -0.049979687 c 0.049979985 -0.03570032 0.07853997 -0.12138033 0.07853997 -0.24990034 v -3.6985197 c 0 -0.12852001 -0.028559983 -0.21419999 -0.07853997 -0.24990001 c -0.049980044 -0.035699993 -0.19992 -0.049979985 -0.44982 -0.049979985 h -0.19992 v -0.27846 c 0.18564 0.01428 0.54978 0.02142 1.0995599 0.02142 c 0.62118006 0 1.02102 -0.0071400004 1.2138001 -0.02142 v 0.27846 h -0.26417994 c -0.3784201 0 -0.5854801 0.035699993 -0.62118006 0.11423999 c -0.014280081 0.035699993 -0.021420002 0.09996 -0.021420002 0.19277999 v 1.70646 h 0.57834005 c 0.30701995 0 0.5069399 -0.057120085 0.5926199 -0.1642201 c 0.08568001 -0.10710001 0.12852001 -0.3212999 0.12852001 -0.6568799 h 0.2284801 v 1.92066 h -0.2284801 c 0 -0.32843995 -0.042840004 -0.54978013 -0.12852001 -0.65688014 c -0.08568001 -0.10710001 -0.28559995 -0.16421986 -0.5926199 -0.16421986 h -0.57834005 v 1.7564399 c 0 0.25704002 0.042840004 0.24989986 0.32130003 0.24989986 Z "/>
        </symbol>
        <symbol id="g8AC743394E474FD47A4EFE623713632" overflow="visible">
            <path d="M 0 0m 2.8202999 2.22768 c 0.40698004 0 0.7711201 0.11423993 1.0924201 0.34272003 c 0.3641398 0.25704002 0.54264 0.57834005 0.54264 0.96389985 c 0 0.40698004 -0.18563986 0.7425599 -0.55692005 0.99959993 c -0.32843995 0.22848034 -0.7068598 0.34272003 -1.1352599 0.34272003 h -2.51328 v -0.27846003 h 0.19991998 c 0.24989998 0 0.39984 -0.021420002 0.44981998 -0.057119846 c 0.049980044 -0.035699844 0.07854003 -0.11424017 0.07854003 -0.24276018 v -3.7199397 c 0 -0.12852001 -0.028559983 -0.21419999 -0.07854003 -0.24990001 c -0.049979985 -0.035699993 -0.19992 -0.049979985 -0.44981998 -0.049979985 h -0.19991998 v -0.27846 c 0.18563999 0.01428 0.54264003 0.02142 1.0638599 0.02142 c 0.52836 0 0.8853601 -0.0071400004 1.071 -0.02142 v 0.27846 h -0.19991994 c -0.24989998 0 -0.39984 0.014279991 -0.44982004 0.049979985 c -0.049979925 0.035700023 -0.07853997 0.12138 -0.07853997 0.24990001 v 1.6493399 Z m -0.8639399 2.3704798 h 0.62831986 c 0.2070601 0 0.38556004 -0.028559685 0.53550005 -0.07853985 c 0.40698004 -0.14994001 0.54978013 -0.44982004 0.54978013 -0.9853201 c 0 -0.19991994 -0.021420002 -0.37127995 -0.071400166 -0.5140798 c -0.12137985 -0.3570001 -0.5069399 -0.54978013 -1.01388 -0.54978013 h -0.9496199 v 1.87782 c 0 0.25704002 0.042840004 0.24989986 0.32130003 0.24989986 Z "/>
        </symbol>
        <symbol id="gC418ABDC7B2E4692E19D53F67EBC0E38" overflow="visible">
            <path d="M 0 0m 1.8768001 6.1404004 c 0.13260007 0 0.33660007 -0.071400166 0.612 -0.22440004 c 0.27540016 -0.15300035 0.48959994 -0.22440004 0.6528001 -0.22440004 c 0.22440004 0 0.4488001 0.10199976 0.6630001 0.30599976 c 0.08159995 0.071400166 0.23460007 0.23460007 0.46920013 0.46920013 l -0.22440004 0.19379997 l -0.13260031 -0.14279985 c -0.21419978 -0.21420002 -0.43859982 -0.32640028 -0.6833999 -0.32640028 c -0.122400045 0 -0.32640004 0.071400166 -0.612 0.22440004 c -0.28559995 0.15300035 -0.49979997 0.22440004 -0.6528001 0.22440004 c -0.22439992 0 -0.44879997 -0.10199976 -0.663 -0.30599976 c -0.08159995 -0.071400166 -0.23460007 -0.23460007 -0.46920002 -0.46920013 l 0.22440004 -0.19379997 c 0.21420002 0.24480009 0.44879997 0.46920013 0.816 0.46920013 Z "/>
        </symbol>
        <symbol id="gC067F919B99F66746D2B595C44500874" overflow="visible">
            <path d="M 0 0m 3.7944002 3.8454 c -0.204 0.43859982 -0.5202 0.66299987 -0.93840003 0.66299987 c -0.6630001 0 -1.2444001 -0.33659983 -1.7442001 -1.0199997 c -0.46920007 -0.63240004 -0.7038001 -1.2852001 -0.7038001 -1.9686002 c 0 -0.88740003 0.51 -1.6524 1.3566 -1.6524 c 0.36720014 0 0.73440003 0.17340001 1.1118 0.5202 l -0.41820002 -1.6728001 c -0.030599833 -0.153 -0.12239981 -0.24480009 -0.2651999 -0.27540004 c -0.05100012 -0.010200024 -0.18359995 -0.020400047 -0.41820002 -0.020400047 c -0.061200023 -0.010200024 -0.102 -0.010200024 -0.122400045 -0.010200024 c -0.091799974 -0.010199904 -0.14279997 -0.091799974 -0.14279997 -0.23459995 v -0.040799975 c 0.030600071 -0.07140005 0.091799974 -0.11220002 0.17340004 -0.11220002 c 0.19379997 0 0.80579996 0.030599952 0.99959993 0.030599952 c 0.19379997 0 0.83640003 -0.030599952 1.0302 -0.030599952 c 0.1428001 0 0.21420002 0.08159995 0.21420002 0.24479997 c 0 0.102 -0.102 0.153 -0.29579997 0.153 c -0.18359995 0 -0.43860006 -0.010200024 -0.43860006 0.11220002 c 0 0.040799975 0.010200024 0.11220002 0.040800095 0.21420002 l 1.3770001 5.61 c 0 0.09180021 -0.05100012 0.14279985 -0.14279985 0.14279985 c -0.18360043 0 -0.57120013 -0.50999975 -0.67320013 -0.65279984 Z m -0.32640004 -0.040799856 c 0.091799974 -0.21420002 0.14279985 -0.3570001 0.14279985 -0.4488001 c 0 -0.010200024 -0.010199785 -0.07139993 -0.030599833 -0.16320014 l -0.24480009 -0.9893999 c -0.19379997 -0.73440003 -0.28559995 -1.1118001 -0.29579997 -1.1322001 c -0.19379997 -0.35699993 -0.7548001 -0.90779996 -1.2444 -0.90779996 c -0.3978001 0 -0.6018001 0.306 -0.6018001 0.90779996 c 0 0.46920013 0.31620002 1.6116 0.459 1.9890002 c 0.19380009 0.47939992 0.64260006 1.1424 1.2036002 1.1424 c 0.27539992 0 0.47939992 -0.13259983 0.612 -0.39779997 Z "/>
        </symbol>
        <symbol id="gAF2E01A57E46500555A4A545FC720A0B" overflow="visible">
            <path d="M 0 0m 7.1196003 2.7540002 h -6.3036003 c -0.16320002 0 -0.24480003 -0.071400166 -0.24480003 -0.204 c 0 -0.13260007 0.08160001 -0.204 0.24480003 -0.204 h 6.3036003 c 0.1631999 0 0.24480009 0.07139993 0.24480009 0.204 c 0 0.12239981 -0.122400284 0.204 -0.24480009 0.204 Z "/>
        </symbol>
        <symbol id="g4C0FA4B51021330B5092CEC619BD9C20" overflow="visible">
            <path d="M 0 0m 4.6104 6.7728004 c 0 0.15299988 -0.08160019 0.25499964 -0.24480009 0.29579973 c -0.5202 0.13260031 -0.90779996 0.19379997 -1.1526 0.19379997 c -0.7242 0 -1.1628001 -0.408 -1.1628001 -1.0812001 c 0 -0.39779997 0.19380021 -0.96899986 0.5916002 -1.7135997 c -1.0506 -0.26520014 -1.8666002 -1.1934001 -2.1216002 -2.2236001 c -0.051 -0.21420002 -0.08160001 -0.42840016 -0.08160001 -0.62220013 c 0 -0.38760006 0.091800034 -0.73440003 0.2856 -1.0302 c 0.306 -0.46920002 0.7548001 -0.7038 1.3362 -0.7038 c 0.42840004 0 0.816 0.1938 1.1730001 0.5916 c 0.5610001 0.64260006 0.8465998 1.4586 0.8465998 2.4276001 c 0 0.6222 -0.20399976 1.1933999 -0.6221998 1.7136002 l -0.07139993 0.091799736 c -0.6630001 0.8568001 -0.98940015 1.4280005 -0.98940015 1.7136002 c 0 0.061200142 0.010200024 0.11220026 0.040800095 0.15300035 c 0.102 0.18359995 0.2651999 0.27539968 0.49979997 0.26519966 c 0.17339993 0 0.38759995 -0.08159971 0.64260006 -0.23460007 c 0.31620002 -0.19379997 0.50999975 -0.2855997 0.5813999 -0.2855997 c 0.22440004 0 0.4488001 0.18359995 0.4488001 0.4488001 Z m -3.4782002 -5.4366007 c 0 0.58140004 0.1428001 1.1424 0.43860006 1.6932001 c 0.31620002 0.612 0.7242 0.9996002 1.224 1.1526 c 0.22440004 -0.38759995 0.37740016 -0.78540015 0.46920013 -1.1832001 c 0.030599833 -0.15299988 0.040799856 -0.32640004 0.040799856 -0.49979997 c 0 -0.28559995 -0.030599833 -0.55079997 -0.091799974 -0.80579996 c -0.25499988 -0.9996001 -0.64260006 -1.4994001 -1.1424 -1.4994001 c -0.58140004 0 -0.93840003 0.4794 -0.93840003 1.1424 Z "/>
        </symbol>
        <symbol id="gC147FA51F901938404A020EF7FB5485A" overflow="visible">
            <path d="M 0 0m 8.251801 6.171 l 0.59159946 0.76500034 l -0.21420002 0.13259983 l -0.33659935 -0.38759995 c -0.13260078 -0.13259983 -0.27540016 -0.204 -0.43860054 -0.204 c -0.05099964 0 -0.15299988 0.010200024 -0.30599976 0.040800095 c -0.4998002 0.08159971 -0.9588003 0.17339993 -1.3871999 0.2855997 l 0.07139969 0.27540016 l -0.10199976 0.05100012 l -0.5712004 -0.2550001 c -0.19379997 0.030600071 -0.39779997 0.040800095 -0.60179996 0.040800095 c -0.8975997 0 -1.6524 -0.24480009 -2.2746 -0.7344003 c -0.54060006 -0.4385996 -0.8772 -0.8873997 -0.99959993 -1.3667998 c -0.102 -0.37739992 0.030599952 -0.6630001 0.33660007 -0.6630001 c 0.091799974 0 0.21420002 0.05100012 0.35699987 0.15299988 c 0.102 0.09180021 0.16320014 0.19379997 0.19379997 0.32640028 v 0.12239981 c 0.010200024 0.26520014 0.030600071 0.47940016 0.071400166 0.63240004 c 0.05099988 0.21420002 0.23459983 0.43860006 0.54060006 0.68340015 c 0.39779997 0.31619978 0.8772001 0.47940016 1.428 0.47940016 c 0.27540016 0 0.5201998 -0.030600071 0.7241998 -0.08160019 l -0.6935997 -2.601 h -1.4892001 l -0.26520014 -0.3671999 h 1.6626 l -0.23460007 -0.83640003 c -0.11219978 -0.42840004 -0.24479961 -0.7752001 -0.39779997 -1.0506002 c -0.306 -0.561 -1.02 -1.2852 -1.7849998 -1.2852 c -0.43860006 0 -0.6936002 0.1938 -0.7752001 0.58140004 c -0.051 0.27539998 -0.16320002 0.40800005 -0.31620002 0.40800005 c -0.13260001 0 -0.26520002 -0.040799975 -0.37739998 -0.122400045 c -0.26520002 -0.18359995 -0.33660004 -0.6222 -0.11220002 -0.918 c 0.21420002 -0.2856 0.52019995 -0.42840004 0.9384 -0.42840004 c 0.41820002 0 0.83640015 0.08160001 1.2750002 0.24480002 c 1.2648001 0.4794 2.0808 1.4586 2.4378 2.9478002 l 0.11220026 0.4590001 h 1.2342 l 0.35699987 0.3671999 h -1.4994001 l 0.6222 2.4072 c 0.46920013 -0.15299988 0.8568001 -0.2856002 1.1628003 -0.37739992 c 0.19379997 -0.071400166 0.33659983 -0.10200024 0.42840004 -0.10200024 c 0.23459959 0 0.43860006 0.122400284 0.63240004 0.37739992 Z "/>
        </symbol>
        <symbol id="g6E7F30DC68C2F93C845EBB1B1744DE4A" overflow="visible">
            <path d="M 0 0m 8.4252 3.7536001 h -5.2530003 c -0.15300012 0 -0.23460007 -0.08159995 -0.23460007 -0.23460007 c 0 -0.1631999 0.08159995 -0.24479985 0.23460007 -0.24479985 h 5.2530003 c 0.16319942 0 0.24479961 0.08159995 0.24479961 0.24479985 c 0 0.122400045 -0.11219978 0.23460007 -0.24479961 0.23460007 Z m 0 -1.9278 h -5.2530003 c -0.15300012 0 -0.23460007 -0.08159995 -0.23460007 -0.24479997 c 0 -0.153 0.08159995 -0.23460007 0.23460007 -0.23460007 h 5.2530003 c 0.16319942 0 0.24479961 0.08160007 0.24479961 0.23460007 c 0 0.13259995 -0.11219978 0.24479997 -0.24479961 0.24479997 Z m -6.7014003 1.9074 c 0 0.31620026 -0.26520002 0.5711999 -0.58140004 0.5711999 c -0.31620002 0 -0.5712 -0.25499964 -0.5712 -0.5711999 c 0 -0.306 0.26520002 -0.5609999 0.5712 -0.5609999 c 0.31620002 0 0.58140004 0.24479985 0.58140004 0.5609999 Z m 0 -2.3664 c 0 0.31620002 -0.26520002 0.561 -0.58140004 0.561 c -0.306 0 -0.5712 -0.255 -0.5712 -0.561 c 0 -0.31620002 0.255 -0.5712 0.5712 -0.5712 c 0.32640004 0 0.58140004 0.24479997 0.58140004 0.5712 Z "/>
        </symbol>
        <symbol id="gD9A1A5C65CB801D57526ED5C27B5412B" overflow="visible">
            <path d="M 0 0m 5.8854003 3.9576 v 0.020400047 c 0.9077997 0.43860006 1.4484 0.9893999 1.6013999 1.6422 c 0.030600071 0.11220026 0.040800095 0.21420002 0.040800095 0.30600023 c 0 0.21420002 -0.061200142 0.39779997 -0.18359995 0.55079985 c -0.17339993 0.23460007 -0.5304003 0.37739992 -1.0812001 0.43860006 c -0.22440004 0.030600071 -0.63240004 0.040800095 -1.224 0.040800095 l 0.040800095 0.21420002 l -0.11220026 0.10199976 l -0.7037997 -0.33659983 c -0.88740015 -0.13260031 -1.6320002 -0.42840004 -2.2134004 -0.8976002 c -0.43859994 -0.34679985 -0.714 -0.7343998 -0.816 -1.1627998 c -0.07139993 -0.2856002 -0.051 -0.47940016 0.040800095 -0.5916004 c 0.040799975 -0.08159971 0.102 -0.12239981 0.19379997 -0.12239981 c 0.31620002 0 0.51 0.17339993 0.60179996 0.5100002 c 0.010200024 0.030599594 0.010200024 0.12239981 0.010200024 0.2855997 l 0.030600071 0.32640028 c 0.061199903 0.22440004 0.23460007 0.4488001 0.51 0.6630001 c 0.43860006 0.34679985 0.94860005 0.55079985 1.53 0.6222 l -0.73440003 -2.9274004 c -0.17339993 -0.69359994 -0.3671999 -1.2444 -0.5609999 -1.6626 c -0.3468001 -0.73440003 -1.0302001 -1.3770001 -2.0196002 -1.3770001 l -0.46920002 -0.61200005 h 2.8050003 c 1.1525998 0 2.295 0.4386 2.9580002 0.97920007 c 0.7241998 0.5814 1.0811996 1.1831999 1.0811996 1.8155999 c 0 0.8262 -0.5303998 1.0098002 -1.3259997 1.1730001 Z m 0.6528001 2.2338 c 0.10199976 -0.13259983 0.15299988 -0.29579973 0.15299988 -0.4895997 c 0 -0.10200024 -0.020400047 -0.21420002 -0.05100012 -0.3366003 c -0.204 -0.8262 -1.1831999 -1.3871999 -2.1521997 -1.3871999 c -0.10200024 0 -0.20400047 0.010200024 -0.18360043 0.10199976 l 0.64260006 2.5296001 c 0.8568001 0 1.3872004 -0.14279985 1.5912004 -0.41820002 Z m -0.38759995 -2.9376 c 0.13259983 -0.17339993 0.204 -0.38759995 0.204 -0.6222 c 0 -0.11220002 -0.020400047 -0.24480009 -0.05100012 -0.37740016 c -0.11220026 -0.48959994 -0.3671999 -0.89759994 -0.7446003 -1.2342 c -0.4487996 -0.38759995 -1.0608001 -0.42839998 -1.8665998 -0.42839998 h -1.6320002 l -0.010200024 0.030600011 c 0.51 0.31620002 0.9588001 0.7548001 1.3464 1.3362 c 0.21420002 0.306 0.46920013 0.8568001 0.7650001 1.6422002 c 0.2958002 0.030599833 0.5100002 0.040799856 0.6528001 0.040799856 c 0.68340015 0 1.1220002 -0.13260007 1.3362002 -0.38759995 Z "/>
        </symbol>
        <symbol id="g34002D7641FF334544E21EABED726F6B" overflow="visible">
            <path d="M 0 0m 3.2436001 -2.5296001 c 0.091799974 0 0.1428001 0.05100012 0.1428001 0.1428001 c 0 0.030600071 -0.020400047 0.07139993 -0.05100012 0.11220002 c -0.53040004 0.408 -0.9588001 1.0812 -1.2750001 2.0094 c -0.27539992 0.8058 -0.4181999 1.6014 -0.4181999 2.3868003 v 0.85679984 c 0 0.78540015 0.14279997 1.5810001 0.4181999 2.3868 c 0.31620002 0.92820024 0.74460006 1.6014004 1.2750001 2.0094004 c 0.030600071 0.030600071 0.05100012 0.07139969 0.05100012 0.11219978 c 0 0.09180021 -0.05100012 0.14279985 -0.1428001 0.14279985 c -0.010200024 0 -0.040800095 -0.010199547 -0.07139993 -0.030599594 c -0.6120002 -0.46920013 -1.1220002 -1.1628003 -1.5402001 -2.091 c -0.3978001 -0.88740015 -0.6018001 -1.7238002 -0.6018001 -2.5296004 v -0.85679984 c 0 -0.8058001 0.204 -1.6422001 0.6018001 -2.5296001 c 0.4181999 -0.9282 0.9281999 -1.6218002 1.5402001 -2.091 c 0.030599833 -0.020400047 0.061199903 -0.030600071 0.07139993 -0.030600071 Z "/>
        </symbol>
        <symbol id="g5D90E47A451348D7BA4C48AA5ECB1211" overflow="visible">
            <path d="M 0 0m 1.4178001 1.0812 c -0.32640004 0 -0.54060006 -0.24479997 -0.54060006 -0.5712 c 0 -0.306 0.23460007 -0.561 0.54060006 -0.561 c 0.14279997 0 0.26520002 0.0408 0.357 0.13260001 l 0.010200024 -0.0816 c 0 -0.6426 -0.21420002 -1.1934 -0.64260006 -1.6320001 c -0.07140005 -0.08159995 -0.11220002 -0.14279997 -0.11220002 -0.18359995 c 0 -0.102 0.040799975 -0.153 0.13260007 -0.153 c 0.091799974 0 0.21420002 0.122399926 0.38759995 0.357 c 0.3468001 0.48959994 0.5202 1.0302 0.5202 1.6116 c 0 0.5406 -0.18359995 1.0812 -0.65279996 1.0812 Z "/>
        </symbol>
        <symbol id="gB6AD65A5947585E2BDC6CEEAC42BF5D9" overflow="visible">
            <path d="M 0 0m 0.79560006 -2.499 c 0.612 0.4691999 1.122 1.1628001 1.5402001 2.091 c 0.39779997 0.88740003 0.60179996 1.7238001 0.60179996 2.5296001 v 0.85679984 c 0 0.8058002 -0.204 1.6422002 -0.60179996 2.5296004 c -0.41820014 0.92819977 -0.9282001 1.6218 -1.5402001 2.091 c -0.030600011 0.020400047 -0.061200023 0.030599594 -0.07140005 0.030599594 c -0.091799974 0 -0.14279997 -0.05099964 -0.14279997 -0.14279985 c 0 -0.040800095 0.020399988 -0.08159971 0.051 -0.11219978 c 0.53040004 -0.408 0.9588001 -1.0812001 1.275 -2.0094004 c 0.27540004 -0.80579996 0.41820014 -1.6013999 0.41820014 -2.3868 v -0.85679984 c 0 -0.78540015 -0.1428001 -1.5810001 -0.41820014 -2.3868003 c -0.3161999 -0.9282 -0.74459994 -1.6014 -1.275 -2.0094 c -0.030600011 -0.040800095 -0.051 -0.08159995 -0.051 -0.11220002 c 0 -0.091799974 0.051 -0.1428001 0.14279997 -0.1428001 c 0.010200024 0 0.040800035 0.010200024 0.07140005 0.030600071 Z "/>
        </symbol>
        <symbol id="g5BB8BFF1B51B11A5B1981212EDBAD0C" overflow="visible">
            <path d="M 0 0m 5.9466004 -0.20400001 c 0.1631999 0 0.24479961 0.08160001 0.24479961 0.24480002 v 3.8454 c 0 0.6833999 -0.30599976 1.2443998 -0.9077997 1.6829998 c -0.5406003 0.39779997 -1.1730003 0.5916004 -1.8768003 0.5916004 c -0.70379996 0 -1.3362 -0.19380045 -1.8768 -0.5916004 c -0.6018001 -0.43860006 -0.9078001 -0.99959993 -0.9078001 -1.6829998 v -3.8454 c 0 -0.1632 0.08160001 -0.24480002 0.24480003 -0.24480002 c 0.15299994 0 0.23460001 0.08160001 0.23460001 0.24480002 v 3.8454 c 0 0.5508001 0.255 0.9996002 0.765 1.3362 c 0.4590001 0.30600023 0.9690001 0.4590001 1.5402 0.4590001 c 0.57120013 0 1.0812004 -0.15299988 1.5402 -0.4590001 c 0.5100002 -0.33659983 0.76500034 -0.7853999 0.76500034 -1.3362 v -3.8454 c 0 -0.1632 0.08159971 -0.24480002 0.23460007 -0.24480002 Z "/>
        </symbol>
        <symbol id="gD262EA7D8A5AFD5F159003BAF6334990" overflow="visible">
            <path d="M 0 0m 2.02776 3.91986 c -0.17850006 0 -0.29988003 -0.07139993 -0.36414003 -0.22133994 l -1.19952 -3.01308 h 0.32129997 l 1.5850801 2.62038 c 0.035699844 0.064260006 0.057119846 0.13565993 0.057119846 0.21420002 c 0 0.21420002 -0.18563986 0.39983988 -0.39983988 0.39983988 Z "/>
        </symbol>
        <symbol id="gE0CEA835C5D02DD58923B8507A7327C1" overflow="visible">
            <path d="M 0 0m 6.2305665 5.1498046 h -0.34365273 q -0.044824123 0.17929697 -0.16186523 0.4258299 q -0.117040634 0.2465334 -0.2614746 0.46567392 q -0.14941406 0.22910166 -0.3262205 0.40092802 q -0.17680645 0.17182589 -0.3411622 0.19672823 q -0.15439463 0.01992178 -0.38847637 0.029882908 q -0.23408222 0.009961128 -0.43330097 0.009961128 h -0.288867 v -5.652832 q 0 -0.16435546 0.06972647 -0.30131835 q 0.06972647 -0.13696289 0.24404287 -0.21166992 q 0.08964872 -0.034863293 0.37602568 -0.0946289 q 0.28637695 -0.059765637 0.44575167 -0.06474608 v -0.3536133 h -3.336914 v 0.3536133 q 0.13945317 0.00996092 0.42583013 0.039843738 q 0.28637683 0.029882818 0.39594734 0.07470703 q 0.16435528 0.06474611 0.24155259 0.18676755 q 0.07719731 0.1220215 0.07719731 0.3262207 v 5.6976566 h -0.28886724 q -0.15439439 0 -0.38349605 -0.0074710846 q -0.22910154 -0.0074706078 -0.43828118 -0.03237295 q -0.16435552 -0.01992178 -0.3411622 -0.19672823 q -0.17680657 -0.17680693 -0.32622063 -0.40092802 q -0.14941406 -0.2241211 -0.26396483 -0.47563457 q -0.1145508 -0.25151396 -0.15937501 -0.41586924 h -0.3486328 v 1.9174805 h 6.1558595 v -1.9174805 Z "/>
        </symbol>
        <symbol id="g2CE253F992692DD3F739C707EC465736" overflow="visible">
            <path d="M 0 0m 4.721484 1.1554687 q -0.30878878 -0.5876953 -0.82675767 -0.93632805 q -0.51796865 -0.3486328 -1.1903319 -0.3486328 q -0.5926759 0 -1.0384278 0.20917967 q -0.4457519 0.20917967 -0.7346191 0.56777346 q -0.28886724 0.3585937 -0.43081057 0.8367187 q -0.14194337 0.47812498 -0.14194337 1.0110351 q 0 0.4781251 0.15190431 0.93881845 q 0.15190428 0.46069336 0.4457519 0.8292482 q 0.2838868 0.3536129 0.70473635 0.5702634 q 0.42084968 0.21665049 0.9437989 0.21665049 q 0.53789043 0 0.9213867 -0.16933584 q 0.38349605 -0.16933584 0.62255836 -0.46318388 q 0.22910166 -0.27890587 0.3411622 -0.6574216 q 0.11206055 -0.37851572 0.11206055 -0.82177734 v -0.32871103 h -3.252246 q 0 -0.48310542 0.09213865 -0.8765625 q 0.09213865 -0.39345694 0.2913574 -0.69228506 q 0.1942383 -0.28886724 0.5080079 -0.4557129 q 0.31376958 -0.16684571 0.7470703 -0.16684571 q 0.44326162 0 0.7645018 0.20668945 q 0.3212402 0.20668948 0.6200683 0.7445801 l 0.3486328 -0.2141602 Z m -1.1006835 1.8726563 q 0 0.2789061 -0.047314405 0.59765625 q -0.047314405 0.3187499 -0.15190434 0.5329101 q -0.11455083 0.22910166 -0.31376958 0.37353516 q -0.19921875 0.1444335 -0.5129883 0.1444335 q -0.5229492 0 -0.86909163 -0.43579102 q -0.34614265 -0.43579102 -0.37602544 -1.212744 h 2.2710938 Z "/>
        </symbol>
        <symbol id="g15B0F630A0E5E58B6D12F98DC6ABE323" overflow="visible">
            <path d="M 0 0m 4.1188474 4.2782226 q 0 -0.254004 -0.12451148 -0.45073247 q -0.12451172 -0.19672847 -0.38349605 -0.19672847 q -0.27890635 0 -0.42583013 0.14443374 q -0.14692378 0.1444335 -0.14692378 0.31874967 q 0 0.1095705 0.017431498 0.19921875 q 0.017431736 0.08964872 0.03237319 0.17929697 q -0.23408198 0 -0.54785156 -0.18925762 q -0.31376958 -0.1892581 -0.5329101 -0.5378907 v -2.858789 q 0 -0.1743164 0.067236185 -0.28388673 q 0.06723642 -0.109570295 0.21166992 -0.16435546 q 0.12451172 -0.049804688 0.3212402 -0.07470703 q 0.1967287 -0.024902344 0.3411622 -0.034863263 v -0.32871094 h -2.5898438 v 0.32871094 q 0.1145508 0.00996092 0.2365723 0.019921869 q 0.12202144 0.00996092 0.21166992 0.039843738 q 0.13945311 0.044824213 0.20668942 0.15688479 q 0.067236304 0.11206055 0.067236304 0.2913574 v 3.0331054 q 0 0.15439439 -0.07221675 0.30380845 q -0.07221681 0.14941406 -0.20170897 0.23906279 q -0.09462893 0.05976534 -0.2241211 0.0871582 q -0.1294922 0.027392387 -0.27890626 0.037353516 v 0.32373047 l 1.6335937 0.10957003 l 0.069726706 -0.06972647 v -0.69228506 h 0.024902344 q 0.308789 0.40341806 0.6873045 0.61259747 q 0.37851572 0.20917988 0.6922853 0.20917988 q 0.31376958 0 0.51049805 -0.20419931 q 0.19672823 -0.20419931 0.19672823 -0.54785156 Z "/>
        </symbol>
        <symbol id="g42ECEF8E83EA4379F873B992BA5B360" overflow="visible">
            <path d="M 0 0m 8.770605 0 h -2.395605 v 0.32871094 q 0.11455059 0.00996092 0.2315917 0.019921869 q 0.11704111 0.00996092 0.20668936 0.039843738 q 0.13945341 0.044824213 0.20668936 0.15688479 q 0.06723642 0.11206055 0.06723642 0.2913574 v 2.5350585 q 0 0.51796865 -0.23657227 0.7993653 q -0.23657227 0.2813964 -0.59018564 0.2813964 q -0.24404287 0 -0.45820284 -0.07470703 q -0.21416044 -0.07470703 -0.39345694 -0.20917988 q -0.14443398 -0.10957003 -0.24155283 -0.23657203 q -0.09711933 -0.127002 -0.14692402 -0.21166992 v -2.8338866 q 0 -0.1743164 0.059765816 -0.28637695 q 0.05976534 -0.11206055 0.20419931 -0.17182615 q 0.11455059 -0.044824243 0.20668936 -0.067236334 q 0.09213877 -0.022412121 0.24155283 -0.03237304 v -0.32871094 h -2.3458009 v 0.32871094 q 0.11455083 0.00996092 0.22163081 0.019921869 q 0.10707998 0.00996092 0.19672847 0.039843738 q 0.13945317 0.044824213 0.20668936 0.15688479 q 0.06723642 0.11206055 0.06723642 0.2913574 v 2.5350585 q 0 0.51796865 -0.23657227 0.7993653 q -0.23657227 0.2813964 -0.5901854 0.2813964 q -0.24404311 0 -0.45820332 -0.077197075 q -0.21415997 -0.07719755 -0.39345694 -0.21166992 q -0.1444335 -0.1095705 -0.24404287 -0.2465334 q -0.099609375 -0.13696289 -0.14941406 -0.20668936 v -2.8139648 q 0 -0.16933596 0.06972647 -0.28388673 q 0.06972647 -0.11455077 0.20917964 -0.1743164 q 0.10458994 -0.049804688 0.2141602 -0.07470703 q 0.109570265 -0.024902344 0.24404287 -0.034863263 v -0.32871094 h -2.3856444 v 0.32871094 q 0.1145508 0.00996092 0.2365723 0.019921869 q 0.12202144 0.00996092 0.21166992 0.039843738 q 0.13945311 0.044824213 0.20668942 0.15688479 q 0.067236304 0.11206055 0.067236304 0.2913574 v 3.0530272 q 0 0.15937495 -0.07221675 0.2863772 q -0.07221681 0.12700176 -0.20170897 0.21665001 q -0.09462893 0.059765816 -0.23408204 0.09711933 q -0.13945314 0.037353516 -0.2888672 0.047314644 v 0.32373047 l 1.6435547 0.10957003 l 0.06972659 -0.06972647 v -0.7022462 h 0.034863353 q 0.12451172 0.12451172 0.30380845 0.29384756 q 0.17929697 0.16933632 0.33369136 0.27392578 q 0.1743164 0.11953163 0.43579102 0.19921875 q 0.2614746 0.079687595 0.5652833 0.079687595 q 0.47812486 0 0.8217771 -0.25649405 q 0.34365273 -0.25649405 0.4930668 -0.62006855 q 0.1792965 0.1743164 0.31625938 0.3062992 q 0.13696289 0.13198233 0.36108398 0.2813964 q 0.1892581 0.12949228 0.44575214 0.2091794 q 0.25649405 0.079687595 0.57026386 0.079687595 q 0.6225586 0 0.9861326 -0.40839815 q 0.3635745 -0.40839863 0.3635745 -1.2550783 v -2.4952147 q 0 -0.1743164 0.059764862 -0.28637695 q 0.059765816 -0.11206055 0.20419979 -0.17182615 q 0.11455059 -0.044824243 0.22661114 -0.067236334 q 0.11206055 -0.022412121 0.25151348 -0.03237304 v -0.32871094 Z "/>
        </symbol>
        <symbol id="gA6A7AC1501B65B4FCDFDC3B09F691EE2" overflow="visible">
            <path d="M 0 0m 2.7442381 0 h -2.3756835 v 0.32871094 q 0.11455077 0.00996092 0.23657224 0.019921869 q 0.1220215 0.00996092 0.21166992 0.039843738 q 0.13945311 0.044824213 0.20668942 0.15688479 q 0.06723642 0.11206055 0.06723642 0.2913574 v 3.0331054 q 0 0.15937495 -0.07221687 0.29135728 q -0.07221675 0.13198233 -0.20170897 0.22163105 q -0.09462887 0.05976534 -0.27392578 0.10209942 q -0.17929685 0.04233408 -0.3287109 0.052295208 v 0.32373047 l 1.733203 0.10957003 l 0.06972659 -0.06972647 v -4.004297 q 0 -0.1743164 0.067236185 -0.28886718 q 0.06723642 -0.1145508 0.21166992 -0.16933596 q 0.1095705 -0.044824213 0.2141602 -0.07221678 q 0.10458994 -0.027392596 0.23408198 -0.037353516 v -0.32871094 Z m -0.6275389 6.90791 q 0 -0.28388643 -0.18676758 -0.49555635 q -0.18676758 -0.21166992 -0.46069336 -0.21166992 q -0.25400388 0 -0.44077146 0.2017088 q -0.18676764 0.20170927 -0.18676764 0.46069336 q 0 0.27392578 0.18676764 0.4781251 q 0.18676758 0.20419931 0.44077146 0.20419931 q 0.28388667 0 0.4656738 -0.19174814 q 0.18178713 -0.19174814 0.18178713 -0.44575214 Z "/>
        </symbol>
        <symbol id="g533B6146EED574DC421942617B3CD52B" overflow="visible">
            <path d="M 0 0m 5.7823243 0 h -2.4055665 v 0.32871094 q 0.11455059 0.00996092 0.25151348 0.019921869 q 0.13696289 0.00996092 0.22661138 0.039843738 q 0.13945317 0.044824213 0.20668936 0.15688479 q 0.06723642 0.11206055 0.06723642 0.2913574 v 2.5250976 q 0 0.5229492 -0.24653316 0.80683565 q -0.24653316 0.2838869 -0.60014653 0.2838869 q -0.2639649 0 -0.48310542 -0.08217764 q -0.21914053 -0.08217764 -0.3884766 -0.20170927 q -0.16435552 -0.11455059 -0.2614746 -0.24653292 q -0.09711909 -0.13198256 -0.14194322 -0.21166992 v -2.8239257 q 0 -0.16933596 0.06972647 -0.27890623 q 0.06972647 -0.109570324 0.20917964 -0.16933596 q 0.10458994 -0.049804688 0.22661138 -0.07470703 q 0.12202144 -0.024902344 0.25151372 -0.034863263 v -0.32871094 h -2.4055665 v 0.32871094 q 0.1145508 0.00996092 0.2365723 0.019921869 q 0.12202144 0.00996092 0.21166992 0.039843738 q 0.13945311 0.044824213 0.20668942 0.15688479 q 0.067236304 0.11206055 0.067236304 0.2913574 v 3.0331054 q 0 0.16933608 -0.07221675 0.31127906 q -0.07221681 0.14194345 -0.20170897 0.23159218 q -0.09462893 0.05976534 -0.2241211 0.0871582 q -0.1294922 0.027392387 -0.27890626 0.037353516 v 0.32373047 l 1.6335937 0.10957003 l 0.069726706 -0.06972647 v -0.69228506 h 0.024902344 q 0.119531155 0.119531155 0.29882813 0.28637695 q 0.17929673 0.1668458 0.33867168 0.27143526 q 0.18427753 0.11953163 0.4382813 0.19921875 q 0.254004 0.079687595 0.5727539 0.079687595 q 0.70722675 0 1.0483885 -0.44077158 q 0.3411622 -0.4407711 0.3411622 -1.1729002 v -2.5549803 q 0 -0.1743164 0.059765816 -0.28139645 q 0.05976534 -0.1070801 0.20419931 -0.16684571 q 0.119531155 -0.049804688 0.20668936 -0.06972659 q 0.0871582 -0.019921869 0.24155283 -0.029882789 v -0.32871094 Z "/>
        </symbol>
        <symbol id="gCBF721E80F858B8686A3D65A0EAC52B6" overflow="visible">
            <path d="M 0 0m 5.0103517 0.08964843 q -0.23408222 -0.084667966 -0.41088867 -0.13696289 q -0.17680693 -0.05229492 -0.40092802 -0.05229492 q -0.38847637 0 -0.6200683 0.1817871 q -0.2315917 0.1817871 -0.29633784 0.5304199 h -0.02988267 q -0.32373047 -0.35859373 -0.6947756 -0.54785156 q -0.37104487 -0.1892578 -0.893994 -0.1892578 q -0.5528321 0 -0.9089356 0.33867186 q -0.35610348 0.33867186 -0.35610348 0.8865234 q 0 0.28388667 0.079687476 0.50800776 q 0.079687536 0.2241211 0.23906249 0.40341794 q 0.12451172 0.14941406 0.32871097 0.26645517 q 0.2041992 0.11704087 0.38349605 0.18676758 q 0.2241211 0.08466792 0.90893555 0.31376958 q 0.68481445 0.22910142 0.923877 0.3585937 v 0.4930663 q 0 0.06474614 -0.027392626 0.24902344 q -0.027392626 0.18427753 -0.11704111 0.3486328 q -0.099609375 0.18427753 -0.2813964 0.32124043 q -0.18178701 0.13696289 -0.5154786 0.13696289 q -0.22910142 0 -0.42583 -0.07719755 q -0.19672847 -0.077197075 -0.27641594 -0.16186523 q 0 -0.099609375 0.047314405 -0.29384756 q 0.047314525 -0.19423819 0.047314525 -0.3585937 q 0 -0.1743164 -0.15688479 -0.3187499 q -0.15688479 -0.14443374 -0.43579102 -0.14443374 q -0.24902344 0 -0.3660645 0.17680669 q -0.11704099 0.17680669 -0.11704099 0.39594722 q 0 0.22910166 0.16186523 0.43828106 q 0.16186523 0.20917988 0.42084962 0.37353516 q 0.2241211 0.13945341 0.5428711 0.23657227 q 0.31875002 0.09711933 0.6225585 0.09711933 q 0.41835952 0 0.7296388 -0.057275295 q 0.3112793 -0.057275295 0.56528306 -0.2465334 q 0.254004 -0.18427706 0.38598633 -0.5005369 q 0.13198233 -0.31625986 0.13198233 -0.81430674 q 0 -0.7122071 -0.0149412155 -1.2625487 q -0.014941692 -0.55034184 -0.014941692 -1.2027833 q 0 -0.19423825 0.06723642 -0.308789 q 0.06723642 -0.11455083 0.20668936 -0.1942383 q 0.07470703 -0.044824213 0.23657227 -0.049804688 q 0.16186523 -0.0049804747 0.33120155 -0.0049804747 v -0.31875 Z m -1.7381837 2.6296873 q -0.42333984 -0.12451172 -0.74208975 -0.24404287 q -0.31875014 -0.119531155 -0.5926759 -0.29882813 q -0.24902332 -0.16933584 -0.39345694 -0.40092766 q -0.14443362 -0.23159182 -0.14443362 -0.55034184 q 0 -0.4133789 0.21665037 -0.6076172 q 0.21665037 -0.19423825 0.55034184 -0.19423825 q 0.35361314 0 0.6225586 0.17182618 q 0.26894522 0.17182612 0.4532225 0.40590817 l 0.029882908 1.7182616 Z "/>
        </symbol>
        <symbol id="g131B820404BBDEA51D60D357C5250494" overflow="visible">
            <path d="M 0 0m 3.391699 0.21416016 q -0.32373047 -0.13447267 -0.61259747 -0.22661133 q -0.28886724 -0.09213867 -0.70722675 -0.09213867 q -0.617578 0 -0.86909163 0.3112793 q -0.25151372 0.31127927 -0.25151372 0.87905264 v 3.3269534 h -0.8865234 v 0.47812462 h 0.9064453 v 1.5290041 h 0.90644526 v -1.5290041 h 1.4094727 v -0.47812462 h -1.3995117 v -2.7442384 q 0 -0.30878913 0.022412062 -0.5154785 q 0.022412062 -0.20668948 0.1070801 -0.36108404 q 0.07968736 -0.14443356 0.23906255 -0.21914059 q 0.15937495 -0.07470703 0.42832017 -0.07470703 q 0.12451172 0 0.36606455 0.022412121 q 0.24155259 0.022412062 0.34116197 0.057275355 v -0.3635742 Z "/>
        </symbol>
        <symbol id="g47834053F8876707A2DB0F8820519B95" overflow="visible">
            <path d="M 0 0m 7.1196003 2.7948 h -2.907 v 2.9070003 c 0 0.1631999 -0.08160019 0.24480009 -0.24480009 0.24480009 c -0.1631999 0 -0.24480009 -0.08160019 -0.24480009 -0.24480009 v -2.9070003 h -2.907 c -0.16320002 0 -0.24480003 -0.08159995 -0.24480003 -0.24479985 c 0 -0.16320014 0.08160001 -0.24480009 0.24480003 -0.24480009 h 2.907 v -2.907 c 0 -0.16320002 0.08160019 -0.24480003 0.24480009 -0.24480003 c 0.1631999 0 0.24480009 0.08160001 0.24480009 0.24480003 v 2.907 h 2.907 c 0.1631999 0 0.24480009 0.08159995 0.24480009 0.24480009 c 0 0.13259983 -0.11220026 0.24479985 -0.24480009 0.24479985 Z "/>
        </symbol>
    </defs>
</svg>
