<svg class="typst-doc" viewBox="0 0 155.00000000000003 54.899800000000006" width="155.00000000000003pt" height="54.899800000000006pt" xmlns="http://www.w3.org/2000/svg" xmlns:xlink="http://www.w3.org/1999/xlink" xmlns:h5="http://www.w3.org/1999/xhtml">
    <g>
        <g class="typst-group">
            <g>
                <path class="typst-shape" fill="#cccccc" fill-rule="nonzero" transform="matrix(1 0 0 1 17.099999999999998 35.93320000000001)" d="M 0 0v 16.9666 h 15.1 v -16.9666 Z "/>
                <path class="typst-shape" fill="#cccccc" fill-rule="nonzero" transform="matrix(1 0 0 1 32.199999999999996 2)" d="M 0 0v 16.9666 h 15.1 v -16.9666 Z "/>
                <path class="typst-shape" fill="#cccccc" fill-rule="nonzero" transform="matrix(1 0 0 1 47.3 18.966600000000003)" d="M 0 0v 16.9666 h 15.1 v -16.9666 Z "/>
                <path class="typst-shape" fill="#cccccc" fill-rule="nonzero" transform="matrix(1 0 0 1 62.39999999999999 35.93320000000001)" d="M 0 0v 16.9666 h 15.1 v -16.9666 Z "/>
                <path class="typst-shape" fill="#cccccc" fill-rule="nonzero" transform="matrix(1 0 0 1 77.5 2)" d="M 0 0v 16.9666 h 15.1 v -16.9666 Z "/>
                <path class="typst-shape" fill="#cccccc" fill-rule="nonzero" transform="matrix(1 0 0 1 92.60000000000001 18.966600000000003)" d="M 0 0v 16.9666 h 15.1 v -16.9666 Z "/>
                <path class="typst-shape" fill="#cccccc" fill-rule="nonzero" transform="matrix(1 0 0 1 107.70000000000002 35.93320000000001)" d="M 0 0v 16.9666 h 15.1 v -16.9666 Z "/>
                <path class="typst-shape" fill="#cccccc" fill-rule="nonzero" transform="matrix(1 0 0 1 122.80000000000001 2)" d="M 0 0v 16.9666 h 15.1 v -16.9666 Z "/>
                <path class="typst-shape" fill="#cccccc" fill-rule="nonzero" transform="matrix(1 0 0 1 137.90000000000003 18.966600000000003)" d="M 0 0v 16.9666 h 15.1 v -16.9666 Z "/>
                <path class="typst-shape" fill="none" stroke="#aaaaaa" stroke-width="0.8503937007874016" stroke-linecap="butt" stroke-linejoin="miter" stroke-miterlimit="4" transform="matrix(1 0 0 1 2 1.5748031496062993)" d="M 0 0v 51.750195 "/>
                <path class="typst-shape" fill="none" stroke="#aaaaaa" stroke-width="0.8503937007874016" stroke-linecap="butt" stroke-linejoin="miter" stroke-miterlimit="4" transform="matrix(1 0 0 1 17.099999999999998 1.5748031496062993)" d="M 0 0v 51.750195 "/>
                <path class="typst-shape" fill="none" stroke="#aaaaaa" stroke-width="0.8503937007874016" stroke-linecap="butt" stroke-linejoin="miter" stroke-miterlimit="4" transform="matrix(1 0 0 1 32.199999999999996 1.5748031496062993)" d="M 0 0v 51.750195 "/>
                <path class="typst-shape" fill="none" stroke="#aaaaaa" stroke-width="0.8503937007874016" stroke-linecap="butt" stroke-linejoin="miter" stroke-miterlimit="4" transform="matrix(1 0 0 1 47.3 1.5748031496062993)" d="M 0 0v 51.750195 "/>
                <path class="typst-shape" fill="none" stroke="#aaaaaa" stroke-width="0.8503937007874016" stroke-linecap="butt" stroke-linejoin="miter" stroke-miterlimit="4" transform="matrix(1 0 0 1 62.39999999999999 1.5748031496062993)" d="M 0 0v 51.750195 "/>
                <path class="typst-shape" fill="none" stroke="#aaaaaa" stroke-width="0.8503937007874016" stroke-linecap="butt" stroke-linejoin="miter" stroke-miterlimit="4" transform="matrix(1 0 0 1 77.5 1.5748031496062993)" d="M 0 0v 51.750195 "/>
                <path class="typst-shape" fill="none" stroke="#aaaaaa" stroke-width="0.8503937007874016" stroke-linecap="butt" stroke-linejoin="miter" stroke-miterlimit="4" transform="matrix(1 0 0 1 92.60000000000001 1.5748031496062993)" d="M 0 0v 51.750195 "/>
                <path class="typst-shape" fill="none" stroke="#aaaaaa" stroke-width="0.8503937007874016" stroke-linecap="butt" stroke-linejoin="miter" stroke-miterlimit="4" transform="matrix(1 0 0 1 107.70000000000002 1.5748031496062993)" d="M 0 0v 51.750195 "/>
                <path class="typst-shape" fill="none" stroke="#aaaaaa" stroke-width="0.8503937007874016" stroke-linecap="butt" stroke-linejoin="miter" stroke-miterlimit="4" transform="matrix(1 0 0 1 122.80000000000001 1.5748031496062993)" d="M 0 0v 51.750195 "/>
                <path class="typst-shape" fill="none" stroke="#aaaaaa" stroke-width="0.8503937007874016" stroke-linecap="butt" stroke-linejoin="miter" stroke-miterlimit="4" transform="matrix(1 0 0 1 137.90000000000003 1.5748031496062993)" d="M 0 0v 51.750195 "/>
                <path class="typst-shape" fill="none" stroke="#aaaaaa" stroke-width="0.8503937007874016" stroke-linecap="butt" stroke-linejoin="miter" stroke-miterlimit="4" transform="matrix(1 0 0 1 153.00000000000003 1.5748031496062993)" d="M 0 0v 51.750195 "/>
                <path class="typst-shape" fill="none" stroke="#aaaaaa" stroke-width="0.8503937007874016" stroke-linecap="butt" stroke-linejoin="miter" stroke-miterlimit="4" transform="matrix(1 0 0 1 1.5748031496062993 2)" d="M 0 0h 151.85039 "/>
                <path class="typst-shape" fill="none" stroke="#aaaaaa" stroke-width="0.8503937007874016" stroke-linecap="butt" stroke-linejoin="miter" stroke-miterlimit="4" transform="matrix(1 0 0 1 1.5748031496062993 18.966600000000003)" d="M 0 0h 151.85039 "/>
                <path class="typst-shape" fill="none" stroke="#aaaaaa" stroke-width="0.8503937007874016" stroke-linecap="butt" stroke-linejoin="miter" stroke-miterlimit="4" transform="matrix(1 0 0 1 1.5748031496062993 35.93320000000001)" d="M 0 0h 151.85039 "/>
                <path class="typst-shape" fill="none" stroke="#aaaaaa" stroke-width="0.8503937007874016" stroke-linecap="butt" stroke-linejoin="miter" stroke-miterlimit="4" transform="matrix(1 0 0 1 1.5748031496062993 52.899800000000006)" d="M 0 0h 151.85039 "/>
                <g class="typst-text" transform="matrix(1 0 0 -1 7 13.966600000000001)">
                    <use xlink:href="#gA8357CEFA3E35A8C9DCF70A30F06B307" x="0" y="0" fill="#000000" fill-rule="nonzero"/>
                </g>
                <g class="typst-text" transform="matrix(1 0 0 -1 22.099999999999998 13.966600000000001)">
                    <use xlink:href="#gC379BFE6E3225D497F0132F0F53BA803" x="0" y="0" fill="#000000" fill-rule="nonzero"/>
                </g>
                <g class="typst-text" transform="matrix(1 0 0 -1 37.199999999999996 13.966600000000001)">
                    <use xlink:href="#gC379BFE6E3225D497F0132F0F53BA803" x="0" y="0" fill="#000000" fill-rule="nonzero"/>
                </g>
                <g class="typst-text" transform="matrix(1 0 0 -1 52.3 13.966600000000001)">
                    <use xlink:href="#gA8357CEFA3E35A8C9DCF70A30F06B307" x="0" y="0" fill="#000000" fill-rule="nonzero"/>
                </g>
                <g class="typst-text" transform="matrix(1 0 0 -1 67.39999999999999 13.966600000000001)">
                    <use xlink:href="#gC379BFE6E3225D497F0132F0F53BA803" x="0" y="0" fill="#000000" fill-rule="nonzero"/>
                </g>
                <g class="typst-text" transform="matrix(1 0 0 -1 82.5 13.966600000000001)">
                    <use xlink:href="#gC379BFE6E3225D497F0132F0F53BA803" x="0" y="0" fill="#000000" fill-rule="nonzero"/>
                </g>
                <g class="typst-text" transform="matrix(1 0 0 -1 97.60000000000001 13.966600000000001)">
                    <use xlink:href="#gA8357CEFA3E35A8C9DCF70A30F06B307" x="0" y="0" fill="#000000" fill-rule="nonzero"/>
                </g>
                <g class="typst-text" transform="matrix(1 0 0 -1 112.70000000000002 13.966600000000001)">
                    <use xlink:href="#gC379BFE6E3225D497F0132F0F53BA803" x="0" y="0" fill="#000000" fill-rule="nonzero"/>
                </g>
                <g class="typst-text" transform="matrix(1 0 0 -1 127.80000000000001 13.966600000000001)">
                    <use xlink:href="#gC379BFE6E3225D497F0132F0F53BA803" x="0" y="0" fill="#000000" fill-rule="nonzero"/>
                </g>
                <g class="typst-text" transform="matrix(1 0 0 -1 142.90000000000003 13.966600000000001)">
                    <use xlink:href="#gA8357CEFA3E35A8C9DCF70A30F06B307" x="0" y="0" fill="#000000" fill-rule="nonzero"/>
                </g>
                <g class="typst-group">
                    <g>
                        <g class="typst-text" transform="matrix(1 0 0 -1 7 30.933200000000003)">
                            <use xlink:href="#gFCEEBC1AD55FE927D225FB333D8D201E" x="0" y="0" fill="#000000" fill-rule="nonzero"/>
                        </g>
                        <g class="typst-text" transform="matrix(1 0 0 -1 22.099999999999998 30.933200000000003)">
                            <use xlink:href="#gC379BFE6E3225D497F0132F0F53BA803" x="0" y="0" fill="#000000" fill-rule="nonzero"/>
                        </g>
                        <g class="typst-text" transform="matrix(1 0 0 -1 37.199999999999996 30.933200000000003)">
                            <use xlink:href="#gA8357CEFA3E35A8C9DCF70A30F06B307" x="0" y="0" fill="#000000" fill-rule="nonzero"/>
                        </g>
                        <g class="typst-text" transform="matrix(1 0 0 -1 52.3 30.933200000000003)">
                            <use xlink:href="#gC379BFE6E3225D497F0132F0F53BA803" x="0" y="0" fill="#000000" fill-rule="nonzero"/>
                        </g>
                        <g class="typst-text" transform="matrix(1 0 0 -1 67.39999999999999 30.933200000000003)">
                            <use xlink:href="#gC379BFE6E3225D497F0132F0F53BA803" x="0" y="0" fill="#000000" fill-rule="nonzero"/>
                        </g>
                        <g class="typst-text" transform="matrix(1 0 0 -1 82.5 30.933200000000003)">
                            <use xlink:href="#gA8357CEFA3E35A8C9DCF70A30F06B307" x="0" y="0" fill="#000000" fill-rule="nonzero"/>
                        </g>
                        <g class="typst-text" transform="matrix(1 0 0 -1 97.60000000000001 30.933200000000003)">
                            <use xlink:href="#gC379BFE6E3225D497F0132F0F53BA803" x="0" y="0" fill="#000000" fill-rule="nonzero"/>
                        </g>
                        <g class="typst-text" transform="matrix(1 0 0 -1 112.70000000000002 30.933200000000003)">
                            <use xlink:href="#gC379BFE6E3225D497F0132F0F53BA803" x="0" y="0" fill="#000000" fill-rule="nonzero"/>
                        </g>
                        <g class="typst-text" transform="matrix(1 0 0 -1 127.80000000000001 30.933200000000003)">
                            <use xlink:href="#gA8357CEFA3E35A8C9DCF70A30F06B307" x="0" y="0" fill="#000000" fill-rule="nonzero"/>
                        </g>
                        <g class="typst-text" transform="matrix(1 0 0 -1 142.90000000000003 30.933200000000003)">
                            <use xlink:href="#gC379BFE6E3225D497F0132F0F53BA803" x="0" y="0" fill="#000000" fill-rule="nonzero"/>
                        </g>
                    </g>
                </g>
                <g class="typst-group">
                    <g>
                        <g class="typst-text" transform="matrix(1 0 0 -1 7 47.899800000000006)">
                            <use xlink:href="#gDE4D08F7D687BAC3BF2DEE741CA83DB2" x="0" y="0" fill="#000000" fill-rule="nonzero"/>
                        </g>
                        <g class="typst-text" transform="matrix(1 0 0 -1 22.099999999999998 47.899800000000006)">
                            <use xlink:href="#gA8357CEFA3E35A8C9DCF70A30F06B307" x="0" y="0" fill="#000000" fill-rule="nonzero"/>
                        </g>
                        <g class="typst-text" transform="matrix(1 0 0 -1 37.199999999999996 47.899800000000006)">
                            <use xlink:href="#gC379BFE6E3225D497F0132F0F53BA803" x="0" y="0" fill="#000000" fill-rule="nonzero"/>
                        </g>
                        <g class="typst-text" transform="matrix(1 0 0 -1 52.3 47.899800000000006)">
                            <use xlink:href="#gC379BFE6E3225D497F0132F0F53BA803" x="0" y="0" fill="#000000" fill-rule="nonzero"/>
                        </g>
                        <g class="typst-text" transform="matrix(1 0 0 -1 67.39999999999999 47.899800000000006)">
                            <use xlink:href="#gA8357CEFA3E35A8C9DCF70A30F06B307" x="0" y="0" fill="#000000" fill-rule="nonzero"/>
                        </g>
                        <g class="typst-text" transform="matrix(1 0 0 -1 82.5 47.899800000000006)">
                            <use xlink:href="#gC379BFE6E3225D497F0132F0F53BA803" x="0" y="0" fill="#000000" fill-rule="nonzero"/>
                        </g>
                        <g class="typst-text" transform="matrix(1 0 0 -1 97.60000000000001 47.899800000000006)">
                            <use xlink:href="#gC379BFE6E3225D497F0132F0F53BA803" x="0" y="0" fill="#000000" fill-rule="nonzero"/>
                        </g>
                        <g class="typst-text" transform="matrix(1 0 0 -1 112.70000000000002 47.899800000000006)">
                            <use xlink:href="#gA8357CEFA3E35A8C9DCF70A30F06B307" x="0" y="0" fill="#000000" fill-rule="nonzero"/>
                        </g>
                        <g class="typst-text" transform="matrix(1 0 0 -1 127.80000000000001 47.899800000000006)">
                            <use xlink:href="#gC379BFE6E3225D497F0132F0F53BA803" x="0" y="0" fill="#000000" fill-rule="nonzero"/>
                        </g>
                        <g class="typst-text" transform="matrix(1 0 0 -1 142.90000000000003 47.899800000000006)">
                            <use xlink:href="#gC379BFE6E3225D497F0132F0F53BA803" x="0" y="0" fill="#000000" fill-rule="nonzero"/>
                        </g>
                    </g>
                </g>
            </g>
        </g>
    </g>
    <defs id="glyph">
        <symbol id="gA8357CEFA3E35A8C9DCF70A30F06B307" overflow="visible">
            <path d="M 0 0m 4.2738004 0 v 0.31620002 h -0.32640028 c -0.918 0 -0.94860005 0.11219999 -0.94860005 0.4896 v 5.7222004 c 0 0.24480009 0 0.26519966 -0.23459983 0.26519966 c -0.63240004 -0.6527996 -1.5300002 -0.6527996 -1.8564003 -0.6527996 v -0.31620026 c 0.20400006 0 0.8058 0 1.3362002 0.26520014 v -5.2836003 c 0 -0.36720002 -0.030600071 -0.4896 -0.9486002 -0.4896 h -0.32639998 v -0.31620002 c 0.35700005 0.0306 1.2444 0.0306 1.6524 0.0306 c 0.408 0 1.2953999 0 1.6524003 -0.0306 Z "/>
        </symbol>
        <symbol id="gC379BFE6E3225D497F0132F0F53BA803" overflow="visible">
            <path d="M 0 0m 4.6920004 3.2640002 c 0 0.81599975 -0.05100012 1.6320002 -0.40800047 2.3868 c -0.4691999 0.9791999 -1.3055999 1.1423998 -1.7339997 1.1423998 c -0.6120001 0 -1.3566002 -0.26519966 -1.7748002 -1.2138 c -0.32639998 -0.7037997 -0.37739998 -1.4994001 -0.37739998 -2.3154 c 0 -0.7650001 0.040799975 -1.6830001 0.459 -2.4582002 c 0.4386 -0.8262 1.1831999 -1.0302 1.6830001 -1.0302 c 0.55079985 0 1.326 0.21420002 1.7747998 1.1832 c 0.32640028 0.7038 0.3774004 1.4993999 0.3774004 2.3052 Z m -0.8466003 0.122400045 c 0 -0.7650001 0 -1.4586002 -0.11220002 -2.1114001 c -0.15299988 -0.9690001 -0.73440003 -1.2750001 -1.1933999 -1.2750001 c -0.3978002 0 -0.99960005 0.255 -1.1832001 1.2342 c -0.11220002 0.6120001 -0.11220002 1.5504 -0.11220002 2.1522002 c 0 0.6528001 0 1.3259997 0.08160007 1.8768001 c 0.19379997 1.2138 0.95879996 1.3056002 1.2138001 1.3056002 c 0.33659983 0 1.0098 -0.18360043 1.2035999 -1.1934004 c 0.102 -0.5711999 0.102 -1.3463998 0.102 -1.9889998 Z "/>
        </symbol>
        <symbol id="gFCEEBC1AD55FE927D225FB333D8D201E" overflow="visible">
            <path d="M 0 0m 4.5798 1.7748001 h -0.2550001 c -0.05099964 -0.306 -0.12239981 -0.7548001 -0.22440004 -0.9078 c -0.07139969 -0.08160001 -0.7445998 -0.08160001 -0.96899986 -0.08160001 h -1.8360001 l 1.0812 1.0506 c 1.5912001 1.4076 2.2032 1.9584001 2.2032 2.9784002 c 0 1.1627998 -0.918 1.9787998 -2.1624 1.9787998 c -1.1526 0 -1.9074001 -0.9383998 -1.9074001 -1.8462 c 0 -0.5711999 0.51 -0.5711999 0.54060006 -0.5711999 c 0.17340004 0 0.53040004 0.12239981 0.53040004 0.5405998 c 0 0.26520014 -0.18360007 0.5304003 -0.54060006 0.5304003 c -0.08160001 0 -0.102 0 -0.13260001 -0.010200024 c 0.23460001 0.6630001 0.7854001 1.0404 1.3770001 1.0404 c 0.9282 0 1.3668001 -0.8262 1.3668001 -1.6626 c 0 -0.816 -0.51 -1.6218002 -1.0710001 -2.2542002 l -1.9584 -2.1828 c -0.11220002 -0.11219999 -0.11220002 -0.13260001 -0.11220002 -0.3774 h 3.7842 Z "/>
        </symbol>
        <symbol id="gDE4D08F7D687BAC3BF2DEE741CA83DB2" overflow="visible">
            <path d="M 0 0m 4.6614003 1.7442001 c 0 0.8363999 -0.64260006 1.6320001 -1.7034001 1.8462001 c 0.83640003 0.27539992 1.428 0.9893999 1.428 1.7951999 c 0 0.83640003 -0.89759994 1.4075999 -1.8768001 1.4075999 c -1.0302 0 -1.8054001 -0.612 -1.8054001 -1.3871999 c 0 -0.33659983 0.22439998 -0.5303998 0.5202001 -0.5303998 c 0.31620002 0 0.5202 0.22440004 0.5202 0.5201998 c 0 0.5100002 -0.47940004 0.5100002 -0.63240004 0.5100002 c 0.31620002 0.49979973 0.9894 0.63240004 1.3565999 0.63240004 c 0.41820002 0 0.9792001 -0.22440004 0.9792001 -1.1424003 c 0 -0.12239981 -0.020400047 -0.71399975 -0.28559995 -1.1627998 c -0.306 -0.48960018 -0.6528001 -0.52020025 -0.9078002 -0.53040004 c -0.08159995 -0.010200024 -0.32639992 -0.030600071 -0.39779997 -0.030600071 c -0.08159995 -0.010200024 -0.153 -0.020400047 -0.153 -0.122400045 c 0 -0.11220002 0.07140005 -0.11220002 0.24480009 -0.11220002 h 0.44879997 c 0.83640003 0 1.2138 -0.69359994 1.2138 -1.6932 c 0 -1.3872001 -0.70379996 -1.6830001 -1.1526 -1.6830001 c -0.43859982 0 -1.2035999 0.17340001 -1.5605999 0.7752 c 0.357 -0.051 0.6732 0.17340004 0.6732 0.561 c 0 0.36720002 -0.27540004 0.5712 -0.5712 0.5712 c -0.24480003 0 -0.5712 -0.14279997 -0.5712 -0.59159994 c 0 -0.92820007 0.94860005 -1.6014001 2.0604 -1.6014001 c 1.2444 0 2.1726003 0.9282 2.1726003 1.9686002 Z "/>
        </symbol>
    </defs>
</svg>
